<?xml version="1.0" encoding="utf-8"?>
<!-- Generator: Adobe Illustrator 24.0.2, SVG Export Plug-In . SVG Version: 6.00 Build 0)  -->
<svg version="1.1" id="圖層_1" xmlns="http://www.w3.org/2000/svg" xmlns:xlink="http://www.w3.org/1999/xlink" x="0px" y="0px"
	 viewBox="0 0 365.6 91.8" style="enable-background:new 0 0 365.6 91.8;" xml:space="preserve">
<style type="text/css">
	.st0{fill:#F9A532;}
	.st1{fill:#3DC1CE;}
	.st2{fill:#EF4E28;}
</style>
<title>資產 1</title>
<g>
	<g>
		<g>
			<path class="st0" d="M54.9,89.2h-7.6c0-19.2,16.3-34.8,36.3-34.8v7.2C67.8,61.6,54.9,74,54.9,89.2z"/>
		</g>
		<g>
			<path class="st1" d="M10.6,89.2H3.4c0-42.4,36-76.9,80.3-76.9v6.9C43.4,19.2,10.6,50.6,10.6,89.2z"/>
		</g>
		<g>
			<path class="st2" d="M38.4,89.2h-7.7c0-28,23.8-50.7,52.9-50.7v7.4C58.7,45.8,38.4,65.3,38.4,89.2z"/>
		</g>
	</g>
	<g>
		<path d="M102.4,71.6l-3.8,0.7c0.7,2.5,1.4,5.6,2.1,9.4l3.8-0.8C103.8,77.6,103.1,74.5,102.4,71.6z"/>
		<path d="M112.2,34.7L112.2,34.7l0.1,2.7h7.8V12.3h-7.8V15h-0.1c-0.9-1.5-3.3-3.5-7.6-3.5c-7,0-13.2,5.2-13.2,13.4
			c0,7.2,4.9,13.4,13.2,13.4C107.6,38.2,110.9,37.1,112.2,34.7z M99.2,24.9c0-2.8,2-6.5,6.5-6.5c4.4,0,6.6,3.3,6.6,6.4
			c0,2.4-1.7,6.4-6.6,6.4C101,31.2,99.2,27.3,99.2,24.9z"/>
		<path d="M144.7,13.6c-1.4-1.2-4.2-2.2-6.7-2.2c-4.7,0-6.3,2.3-7.1,3.5h-0.1v-2.7h-7.3v25.1h7.8V23.7c0-1.5,0-5.2,4.5-5.2
			c4.1,0,4.1,3.4,4.1,5.2v13.7h7.8V21.7C147.7,16.8,146.1,14.8,144.7,13.6z"/>
		<path d="M160.9,38.2c2,0,5.2-0.3,6.8-3.5h0.1v2.7h7.4V12.3h-7.8v13.8c0,4-2.2,5.1-4.5,5.1c-4.2,0-4.2-3.3-4.2-5V12.3h-7.8v15
			c0,3.4,0.3,5.2,2.4,7.7C155.5,37.8,159.3,38.2,160.9,38.2z"/>
		<path d="M191.8,31.9c-3.1,0-5.7-1.8-6.1-4.7h19.6c0.1-0.6,0.2-1,0.2-2c0-7.6-5.8-13.7-13.8-13.7c-8,0-13.7,6.5-13.7,13.5
			c0,7.5,6.4,13.3,13.9,13.3c2.7,0,5.3-0.8,7.4-2.3c2.2-1.4,4.1-3.6,5.3-6.4h-8C195.5,30.8,194.2,31.9,191.8,31.9z M191.7,17.8
			c4.1,0,5.6,2.8,5.9,4.3h-11.9C186.1,20.6,187.7,17.8,191.7,17.8z"/>
		<path d="M115.9,59.6l3.1-2.7c-2.6-3.2-5.5-6.4-8.4-9.4l0.4-1.3l-3.8-1.1c-2.6,4.8-5.9,8.7-9.9,11.8l1.9,3.7c1-0.6,1.8-1.3,2.5-2.1
			V61h4v4.5h-7.2v3.5h7.2v15L97.6,85l0.8,3.7l19-2.7l0.4-3.7l-8,1.1V68.9h7.4v-3.5h-7.4V61h4.1v-3.5h-10.6c2.3-2.3,3.9-4.6,5.1-6.8
			C111.1,53.6,113.7,56.6,115.9,59.6z"/>
		<path d="M111,80.4l3.8,0.9c0.9-2.7,1.8-5.7,2.8-9l-3.8-0.7C113,74.5,112.1,77.4,111,80.4z"/>
		<path d="M153.2,74.2h32.7l-12.5,3.7V85c0,1.2-0.9,1.8-2.1,1.8c-2.1,0-5.7-0.2-8.8-0.5l1.1,3.8c2.4,0.1,4.9,0.2,7.7,0.2
			c4.4,0,6.7-1.9,6.7-5.3v-5l18.2-6v-3.3h-43.1V74.2z"/>
		<path d="M124.1,75.7l17.9,0c0.6,0,1.1-0.5,1.1-1v-14c0-0.6-0.5-1-1.1-1.1h-17.9v-8.6h21.3v-3.5H121c-0.6,0-1.1,0.5-1.1,1.1v38.9
			c0,0.6,0.5,1.1,1.1,1.1h25V85h-21.9V75.7z M124.1,63.1h14.7v9.1h-14.7V63.1z"/>
		<path d="M192.6,68c0.6,0,1.1-0.5,1.1-1.1v-8.7c0-0.6-0.5-1.1-1.1-1.1H159c-0.6,0-1.1,0.5-1.1,1.1v8.7c0,0.6,0.5,1.1,1.1,1.1H192.6
			z M162.5,60.4h26.6v4.3h-26.6V60.4z"/>
		<polygon points="177.9,45 173.6,45 173.6,50.9 151.7,50.9 151.7,54.3 200,54.3 200,50.9 177.9,50.9 		"/>
		<path d="M205.1,86l1.7,4.1c7.2-1.2,13.4-2.5,18.5-3.9l-2.1-3.6C218.4,83.8,212.4,84.9,205.1,86z"/>
		<path d="M234,86.2c6.1,1.1,12.2,2.4,18.5,3.9l1.7-4.1c-6.1-1.3-12.2-2.4-18.3-3.4L234,86.2z"/>
		<path d="M216,37.4h4.9V16.6h4.6v-4.3h-4.6V11c0-1.8,1.3-2.9,4.6-2.9V3.8c-2.9,0-4.3,0.1-6.4,1.4c-2,1.3-3.1,3.2-3.1,5.9v1.2h-2.3
			v4.3h2.3V37.4z"/>
		<path d="M231.4,35.5c1.9,1.6,4.5,2.5,7.5,2.5c3.3,0,6.4-1.2,7.7-3.4h0.1v2.7h4.5V12.2h-4.9v13.5c0,5.5-2.8,8-6.9,8
			c-3.6,0-6.5-1.6-6.5-7.8V12.2h-4.9v13.6C227.9,30.9,229.2,33.7,231.4,35.5z"/>
		<path d="M259.6,23.7c0-5,2.8-7.8,6.9-7.8c6.5,0,6.5,5.9,6.5,7.8v13.7h4.9V22.5c0-2.8-0.6-4.8-1.7-6.4c-1.9-2.8-5.2-4.5-9.3-4.5
			c-1,0-5,0-7.7,3.4h-0.1v-2.7h-4.6v25.1h4.9V23.7z"/>
		<path d="M294.2,38c3.8,0,7.2-1.5,9.3-4.2h0.1v3.6h4.5V3.8h-4.9v11.5h-0.1c-1.9-2.3-5.3-3.8-8.9-3.8c-9.3,0-13.6,7.2-13.6,13.3
			C280.5,31.5,285.4,38,294.2,38z M294.4,15.9c5.1,0,9.1,3.6,9.1,9c0,4.8-4,8.8-9.1,8.8c-5.2,0-9-4.3-9-8.8
			C285.4,20.9,288.4,15.9,294.4,15.9z"/>
		<path d="M212.2,60.5c-0.6,0-1.1,0.5-1.1,1.1v19.2c0,0.6,0.5,1.1,1.1,1.1h35.2c0.6,0,1.1-0.5,1.1-1.1V61.6c0-0.6-0.5-1.1-1.1-1.1
			H212.2z M244,78.5h-28.5v-2.7H244V78.5z M244,72.4h-28.5v-2.8H244V72.4z M244,66.4h-28.5v-2.6H244V66.4z"/>
		<path d="M209.3,58h41c0.6,0,1.1-0.5,1.1-1.1v-9.1c0-0.6-0.5-1.1-1.1-1.1h-41c-0.6,0-1.1,0.5-1.1,1.1v9.1
			C208.1,57.5,208.6,58,209.3,58z M238.5,49.9h8.5v4.7h-8.5V49.9z M225.5,49.9h8.5v4.7h-8.5V49.9z M212.6,49.9h8.5v4.7h-8.5V49.9z"
			/>
		<path d="M299.5,81.1v-3c2.3,1.5,4.8,2.6,7.5,3.6l2.6-3.6c-5.4-1.7-9.4-3.8-11.9-6.3h11v-3.5h-8.9v-16h7.5v-3.5h-7.5v-4h-4.5v4
			h-21.9v-4h-4.5v4h-7.5v3.5h7.5v16H260v3.5h11.3c-2.7,2.4-6.7,4.5-12.1,6.5l2.6,3.6c2.6-1.1,4.9-2.3,7-3.6v2.8h13.2V85h-20.4v3.6
			h45.7V85h-20.8v-3.9H299.5z M273.4,52.3h21.9v3.1h-21.9V52.3z M273.4,58.8h21.9v3.1h-21.9V58.8z M273.4,65.2h21.9v3.1h-21.9V65.2z
			 M281.9,73.8v3.7h-12.4c2.9-1.7,5.3-3.6,7.2-5.7h15.3c2.1,2.4,4.3,4.3,6.6,5.7h-12.4v-3.7H281.9z"/>
		<path d="M355.1,78l-3.4-2l-5.6,8.8h-5.4V73.6h17.2v-3.8h-17.2V64h12.1v-2.7c2.4,1.4,5,2.7,7.6,3.7l2.6-3.7
			c-8.2-3-15.3-7.8-21.4-14.3l0.8-1.2l-4.5-1.4c-5.5,6.5-13.5,12.1-24,16.6l2.3,3.9c2.8-1.3,5.4-2.6,7.8-3.9V64h12.1v5.9h-17.2v3.8
			h17.2v11.1h-5.4l-5.6-8.8l-3.4,2l4.4,6.8h-10.8v3.8h45.9v-3.8h-10.6L355.1,78z M325.2,60.3c5.4-3.3,9.8-6.7,13.4-10.2
			c3.8,3.9,8,7.3,12.5,10.2H325.2z"/>
	</g>
</g>
</svg>
