<svg xmlns="http://www.w3.org/2000/svg" viewBox="0 0 380.43 496.66"><defs><style>.b41d67c5-4094-472d-b394-a0b3bc7b931a,.b595f897-f157-4674-a6a6-54945ea68794{fill:#faa836;}.fc4fe1c0-cd15-4708-8640-d1621adeae2c{fill:#fffffa;}.a1b8596d-c69d-4cb1-9aeb-d450f0dc0548{fill:#fff;}.f8ffe5eb-f143-4900-9d5e-504dda8e6360{fill:#8ed2c2;}.b43541aa-c476-4276-8ed3-fed8d7229ca9{fill:#eb9136;}.a7860ee2-8f50-4dbd-8725-c8e639966cfd{fill:none;}.a7860ee2-8f50-4dbd-8725-c8e639966cfd,.b41d67c5-4094-472d-b394-a0b3bc7b931a{stroke:#000;stroke-miterlimit:10;stroke-width:2.5px;}.a9d3a044-cc44-43e6-83a3-cdad11206241{fill:#eec29c;}.a5680bed-1684-4b9b-bdee-8fdba373103c{fill:#ecf0f1;}.a87aeac9-ccbf-4f4a-8735-31f1358c9f71{fill:#ef4836;}.a14740e6-9e52-484e-b39b-f8d491a9b4f4{fill:#608cd4;}.b6569600-3b66-49eb-aca0-b8dfd71695f2{fill:#ffcfcf;}</style></defs><title>資產 4</title><g id="bf02113d-ac71-4901-bcd0-fb6ccc44a181" data-name="圖層 2"><g id="ef073dc4-3674-42e8-bf9a-461640c99f55" data-name="圖層 1"><path class="b595f897-f157-4674-a6a6-54945ea68794" d="M314.1,335.43s42.56,37.1,47.94,55.63c2.59,8.9,0,13.31-3.74,15.53s-8.62,2.88-16.19-2.53c-9.87-7.06-46.69-48.19-46.69-48.19S293.52,341.07,314.1,335.43Z"/><path d="M347.92,408.5a26.43,26.43,0,0,1-6.47-3.52c-9.86-7.05-45.37-46.67-46.88-48.35l-.23-.26,0-.35c0-.16-1.77-15.85,19.51-21.68l.58-.16.46.39c1.75,1.53,42.88,37.54,48.29,56.17,2.36,8.13.93,13.79-4.26,16.83A12.39,12.39,0,0,1,347.92,408.5Zm-51.41-53.1c3.29,3.66,37,41.14,46.26,47.74,7.66,5.48,12,4.2,15,2.48,4.23-2.49,5.29-7.15,3.23-14.25-4.94-17-42.54-50.62-47.15-54.69C296.66,341.64,296.41,353.3,296.51,355.4Z"/><path d="M342.27,364s-5.2,4.31-9.55,13.42a51.75,51.75,0,0,0,13.75-8.87Z"/><path d="M349.83,371.2s-8.14,8.28-9.48,14.33c0,0,10-2.91,13.25-9.44Z"/><path d="M348.24,401.82q-2.82-1-6.23-4.73l1.68-1.52c4.36,4.78,6.78,4.58,7.34,4.1l.12-.09a.92.92,0,0,0,.4-.74c.18-1.84-2.39-5.38-4.05-7.18l1.66-1.53c.51.55,5,5.49,4.64,8.93a3.2,3.2,0,0,1-1.26,2.3,3.53,3.53,0,0,1-2.45.81A6,6,0,0,1,348.24,401.82Z"/><path class="b595f897-f157-4674-a6a6-54945ea68794" d="M222.21,425c1.56,5.44,7.17,22,8,24.48,2.35,7.11,7.86,23.42,10.91,31.3-9.3,2.86-11.48,3.94-11.06,9.06.56,6.74,7.42,6.06,21.07,4.94s24.89-3.16,24.34-9.9c-.23-2.81-.93-9.05-.93-9.05s-3.87-37.5,2-39.27h0c-.12,0-.28.13-.35,0C252.55,405.59,227.54,407,222.21,425Z"/><path d="M249.79,496.05c-6.41.53-11.09.88-14.47.32-4-.66-6.08-2.7-6.38-6.41-.48-5.86,2.39-7.29,10.69-9.87-3.1-8.2-8.16-23.16-10.5-30.23-.14-.43-.43-1.29-.82-2.44-1.91-5.7-5.89-17.56-7.19-22.08L221,425l.1-.32c2.11-7.14,7.32-12,14.28-13.25,12.65-2.32,28.23,6.82,41.68,24.47a1.05,1.05,0,0,0-.63-.39l.08,1h0l.39,1.06c-3.14,1-3.08,20.51-1.27,38.1,0,.05.71,6.28.94,9.07.68,8.29-12.75,10.08-25.38,11.12l-.72.06Zm-26.4-71c1.38,4.71,5.35,16.54,7.07,21.66.39,1.16.68,2,.82,2.45,2.45,7.39,7.87,23.42,10.9,31.26l.44,1.13-1.17.36c-9.44,2.89-10.59,3.78-10.26,7.88.22,2.64,1.48,3.86,4.49,4.36,3.24.54,8.27.12,14.63-.4l.72-.06c11.8-1,23.8-2.75,23.31-8.68-.22-2.76-.92-8.95-.93-9s-1-9.54-1.2-19.07c-.33-13.52.94-18.5,2.49-20.38-12.78-16.46-27.27-25-38.89-22.85C229.74,414.8,225.34,418.83,223.39,425Z"/><path d="M229,446.33s20.18-.45,23.16,1.21-21,4.82-21,4.82Z"/><path d="M235.25,465.09s18.47-.66,18.67,1.74-16.07,4-16.07,4Z"/><path class="b595f897-f157-4674-a6a6-54945ea68794" d="M325.28,404.81c-.65,5.62-3.49,22.84-3.91,25.45-1.16,7.4-3.95,24.39-5.68,32.66,9.65,1.31,12,2,12.39,7.14.55,6.74-6.33,7.18-20,8.3s-25.08.93-25.63-5.81c-.23-2.81-.55-9.08-.55-9.08s-2.29-37.63-8.36-38.43h0c.12,0,.3.08.36,0C292.18,390.57,317.1,387.93,325.28,404.81Z"/><path d="M309.62,479.37l-.71.06-.72.06c-12.63,1-26.17,1.44-26.85-6.85-.23-2.79-.55-9-.55-9.11-1.07-17.64-4.2-36.95-7.37-37.36l-.13,0,.27-1.07-.09-1.08a1.14,1.14,0,0,0-.56.49c10.39-19.59,24.28-31.15,37.15-30.92,7.07.13,13,4.05,16.24,10.76l.14.29,0,.33c-.55,4.67-2.55,17-3.51,23-.19,1.19-.34,2.08-.41,2.54-1.16,7.35-3.72,22.94-5.45,31.53,8.62,1.19,11.69,2.14,12.17,8,.3,3.71-1.37,6-5.26,7.36C320.7,478.44,316,478.85,309.62,479.37ZM275.36,424.7c1.84,1.61,3.9,6.31,5.78,19.7,1.32,9.44,1.9,18.91,1.91,19s.32,6.29.55,9c.48,5.93,12.61,5.74,24.41,4.77l.72-.06c6.36-.51,11.39-.93,14.5-2,2.89-1,3.94-2.39,3.72-5-.34-4.1-1.61-4.78-11.41-6.1l-1.2-.17.25-1.19c1.71-8.22,4.45-24.92,5.67-32.61.07-.45.21-1.34.41-2.54.86-5.34,2.86-17.66,3.45-22.53-2.93-5.81-7.93-9.07-14.1-9.18C298.19,395.6,285.29,406.39,275.36,424.7Z"/><path d="M322.09,426.92s-20,2.84-22.65,5,21.49,1.34,21.49,1.34Z"/><path d="M318.93,446.45s-18.33,2.36-18.14,4.75,16.52,1.38,16.52,1.38Z"/><path class="fc4fe1c0-cd15-4708-8640-d1621adeae2c" d="M361.84,281s7.67,8.81,15.1,12c0,0,4.51,1.4,1,4.85a49.79,49.79,0,0,1-6.27,5.35s.23,1.06,3.25,2.94,4,2.38.61,4.93-6.33,5-6.33,5-2.09,1.66,3,3.74c3.22,1.3-6.18,10.15-10.41,13s-14.84,9.51-44.29,11.9C303.75,345.87,361.84,281,361.84,281Z"/><path d="M317.88,345.86l-.21,0a2.8,2.8,0,0,1-3-1.4c-.71-1.43-2.6-5.23,21.87-35.47,11.88-14.69,24.37-28.66,24.5-28.8a1.12,1.12,0,0,1,.85-.37,1.16,1.16,0,0,1,.85.38c.07.09,7.56,8.62,14.64,11.7.46.15,2.55.95,3,2.8.31,1.26-.22,2.58-1.57,3.91a55.32,55.32,0,0,1-5.49,4.81,12.33,12.33,0,0,0,2.28,1.72l.22.14c1.8,1.13,3,1.87,3.05,3.2s-.95,2.22-2.57,3.45c-3.32,2.51-6.26,5-6.29,5s.15.78,2.74,1.83a2.1,2.1,0,0,1,1.35,1.75c.4,3.73-9.09,11.58-11.55,13.26C356.45,337.9,345.24,343.62,317.88,345.86Zm44-63.2c-24,26.85-47.23,56.7-45.2,60.81.1.2.71.16.84.15l.21,0c26.82-2.19,37.69-7.72,43.53-11.69,4.62-3.13,10.6-9.4,10.59-11.05-2.58-1.06-3.92-2.22-4.11-3.56a2.29,2.29,0,0,1,.83-2.1s3-2.51,6.35-5.05a6.12,6.12,0,0,0,1.65-1.54,10.93,10.93,0,0,0-2-1.39l-.22-.14c-3.09-1.93-3.66-3.2-3.75-3.66a1.13,1.13,0,0,1,.46-1.17,49.58,49.58,0,0,0,6.11-5.22c.71-.71,1.06-1.36,1-1.77-.14-.6-1.18-1.09-1.54-1.2l-.11-.05C370.3,291.35,364.08,285.06,361.85,282.66Z"/><path class="fc4fe1c0-cd15-4708-8640-d1621adeae2c" d="M166.86,296.93s-6.14,9.94-12.94,14.3c0,0-4.23,2.12-.24,5a49.52,49.52,0,0,0,7,4.26s0,1.08-2.72,3.43-3.55,3,.19,5,7.07,3.94,7.07,3.94,2.34,1.3-2.39,4.19c-3,1.81,7.75,9,12.39,11.15s16.19,7,45.64,4.54C234.73,351.52,166.86,296.93,166.86,296.93Z"/><path d="M220.79,353.81c-27.36,2.24-39.35-1.59-46-4.66-2.7-1.25-13.34-7.46-13.55-11.2a2.09,2.09,0,0,1,1-1.95c2.38-1.45,2.43-2.22,2.43-2.22s-3.37-2-7-3.93c-1.81-1-3-1.79-3.1-3s.89-2.24,2.49-3.64l.19-.18a12.28,12.28,0,0,0,2-2.07,53.57,53.57,0,0,1-6.2-3.85c-1.55-1.1-2.28-2.31-2.19-3.6.15-1.91,2.08-3,2.51-3.26,6.49-4.19,12.49-13.82,12.55-13.92a1.13,1.13,0,0,1,1.67-.29c.15.12,14.74,11.88,28.86,24.44,29.06,25.85,27.81,29.91,27.34,31.43a2.8,2.8,0,0,1-2.77,1.88Zm-57.28-15.9c.25,1.63,7.17,6.84,12.23,9.19,6.42,3,18,6.65,44.86,4.45l.21,0c.13,0,.73-.07.8-.28,1.34-4.39-26.48-30.05-54.48-52.65-1.82,2.74-6.93,9.94-12.6,13.58a.3.3,0,0,1-.11.06c-.41.21-1.28.85-1.32,1.44,0,.43.42,1,1.24,1.59a50.65,50.65,0,0,0,6.87,4.16,1.11,1.11,0,0,1,.65,1.08c0,.46-.37,1.81-3.1,4.22l-.2.18a10.85,10.85,0,0,0-1.71,1.68,6.16,6.16,0,0,0,1.88,1.25c3.73,2,7.08,4,7.12,4a2.29,2.29,0,0,1,1.13,1.92C167,335.09,165.87,336.46,163.51,337.91Zm-9.59-26.68h0Z"/><ellipse cx="338.88" cy="194.42" rx="37.56" ry="41.48" transform="translate(-14.73 28.29) rotate(-4.68)"/><ellipse class="a1b8596d-c69d-4cb1-9aeb-d450f0dc0548" cx="338.88" cy="194.42" rx="23.35" ry="25.79" transform="translate(-14.73 28.29) rotate(-4.68)"/><ellipse cx="175.25" cy="207.81" rx="37.56" ry="41.48" transform="translate(-16.37 14.99) rotate(-4.68)"/><ellipse class="a1b8596d-c69d-4cb1-9aeb-d450f0dc0548" cx="175.25" cy="207.81" rx="23.35" ry="25.79" transform="translate(-16.37 14.99) rotate(-4.68)"/><path class="b595f897-f157-4674-a6a6-54945ea68794" d="M276.54,435.17l.7-.06A1.68,1.68,0,0,0,276.54,435.17Z"/><path d="M265.65,437.24l10.57-3.16a2.89,2.89,0,0,1,1.17-.09l10.41,1.34Z"/><path class="b595f897-f157-4674-a6a6-54945ea68794" d="M368,271.82c-.87-57.28-41.6-113.64-116-107.54-62.81,5.14-102.57,64-93.94,123.06,4.41,30.19,23.59,52.92,56.61,65.74-1.74,9.12-1.24,18.52-1,27,.6,26,7.27,45.57,13.75,53.72,8.63,10.85,50.06,4.15,50.18,4.13s30.81-2.9,43-10.28c4.25-2.56,5.93-8.25,6.55-11.09,1.32-6,2.23-17.26,2.23-17.26a159,159,0,0,0-2-29,117.51,117.51,0,0,0-7-25.61C351.82,333.3,368.47,305.79,368,271.82Z"/><path d="M264.36,440.6c-13.14,1.08-32.14,1.2-38-6.11-6.06-7.61-13.35-26.43-14-54.41,0-.93,0-1.87-.08-2.82-.19-7.29-.41-15.52,1-23.47-32.48-12.88-52-35.78-56.45-66.28a112.23,112.23,0,0,1,22.88-85.86,101.85,101.85,0,0,1,72.09-38.5c32.07-2.63,60.25,6.17,81.49,25.44,22.24,20.19,35.29,50.52,35.78,83.21h0c.54,35.29-16.71,62-47.37,73.5a119.64,119.64,0,0,1,6.6,24.78,162.08,162.08,0,0,1,2.05,29.25c0,.5-.94,11.42-2.25,17.45-.71,3.25-2.57,9.09-7.07,11.82-10.89,6.59-35.79,9.63-43.16,10.4l-.27,0C277.49,439.06,271.88,440,264.36,440.6ZM252,165.4a99.66,99.66,0,0,0-70.5,37.66,110,110,0,0,0-22.41,84.12c4.37,29.92,23.7,52.34,55.9,64.84l.88.34-.17.93c-1.53,8-1.31,16.08-1.1,23.91,0,.95.05,1.9.07,2.83.6,25.66,7.21,45.13,13.51,53.05,6.85,8.62,38.54,5.49,49.1,3.71l.37,0c7.25-.76,31.74-3.74,42.23-10.08,3.78-2.29,5.4-7.48,6-10.37,1.28-5.89,2.19-17,2.2-17.11a158.91,158.91,0,0,0-2-28.75,115.23,115.23,0,0,0-6.9-25.36l-.45-1.1,1.12-.4c30.38-10.91,47.5-37.06,47-71.74l1.13,0-1.13,0c-.49-32.07-13.26-61.8-35-81.57C311,171.43,283.44,162.83,252,165.4Z"/><ellipse class="a1b8596d-c69d-4cb1-9aeb-d450f0dc0548" cx="312.51" cy="251.93" rx="25.67" ry="23.52" transform="translate(-19.51 26.33) rotate(-4.68)"/><ellipse class="f8ffe5eb-f143-4900-9d5e-504dda8e6360" cx="312.5" cy="251.8" rx="20.85" ry="19.11" transform="translate(-19.5 26.33) rotate(-4.68)"/><ellipse cx="312.62" cy="253.26" rx="17.65" ry="16.17" transform="matrix(1, -0.08, 0.08, 1, -19.62, 26.35)"/><ellipse class="a1b8596d-c69d-4cb1-9aeb-d450f0dc0548" cx="311.78" cy="243" rx="6.42" ry="5.88" transform="translate(-18.79 26.25) rotate(-4.68)"/><ellipse class="a1b8596d-c69d-4cb1-9aeb-d450f0dc0548" cx="205.8" cy="260.66" rx="25.67" ry="23.52" transform="translate(-20.58 17.66) rotate(-4.68)"/><ellipse class="f8ffe5eb-f143-4900-9d5e-504dda8e6360" cx="205.79" cy="260.53" rx="20.85" ry="19.11" transform="translate(-20.57 17.66) rotate(-4.68)"/><ellipse cx="205.79" cy="260.53" rx="16.04" ry="14.7" transform="translate(-20.57 17.66) rotate(-4.68)"/><ellipse cx="205.91" cy="262" rx="17.65" ry="16.17" transform="translate(-20.69 17.67) rotate(-4.68)"/><ellipse class="a1b8596d-c69d-4cb1-9aeb-d450f0dc0548" cx="205.07" cy="251.74" rx="6.42" ry="5.88" transform="translate(-19.85 17.57) rotate(-4.68)"/><path class="b43541aa-c476-4276-8ed3-fed8d7229ca9" d="M312.48,291.36c1.68,20.54-19.56,32.1-46.75,34.32s-50-5.72-51.72-26.26,18.43-45.9,45.63-48.13S310.8,270.81,312.48,291.36Z"/><path class="a1b8596d-c69d-4cb1-9aeb-d450f0dc0548" d="M304.76,289.05c8.23,24.79-16,34.13-39.08,36s-49-3.81-44.43-29.19c2.35-13,17.64-14.44,40.7-16.33S300.54,276.33,304.76,289.05Z"/><path d="M360.44,250.27s-7.93,24.62-25.05,32.17C335.39,282.44,361.43,283.64,360.44,250.27Z"/><path d="M363.61,272.65s-6.11,18.13-24,26.77C339.65,299.42,362.26,300,363.61,272.65Z"/><path d="M159.89,266.69s11.83,23,30,27.67C189.84,294.36,164.34,299.78,159.89,266.69Z"/><path d="M160.4,289.28s9,16.9,28,22.52C188.4,311.8,166.19,316.08,160.4,289.28Z"/><path d="M212,189.12s50.91-9.51,84.48-6.46C296.45,182.66,259.62,162.05,212,189.12Z"/><path d="M220.28,205.24A221.14,221.14,0,0,1,292,199.37S253.33,182,220.28,205.24Z"/><path d="M229.88,225s27.46-8,54.83-4.49C284.71,220.52,257.11,205.39,229.88,225Z"/><rect x="252.48" y="181.52" width="6.23" height="36.79" transform="translate(-15.46 21.52) rotate(-4.68)"/><ellipse class="a7860ee2-8f50-4dbd-8725-c8e639966cfd" cx="264.41" cy="307.59" rx="5.72" ry="8.22" transform="translate(-24.21 22.6) rotate(-4.68)"/><path class="fc4fe1c0-cd15-4708-8640-d1621adeae2c" d="M311.89,369.23c1.66,20.29,7.48,54.37-37.39,58-37.22,3.05-42.65-31.06-44.31-51.36s15.28-38.24,37.84-40.09S310.23,348.93,311.89,369.23Z"/><path class="a9d3a044-cc44-43e6-83a3-cdad11206241" d="M275.62,276.65c.31,3.76-5.12,13.89-12.78,14.52s-14.64-8.49-14.95-12.26,5.83-5.11,13.49-5.74S275.31,272.88,275.62,276.65Z"/><path d="M263,292.86c-8.81.72-16.42-9.43-16.78-13.81-.45-5.55,7.35-6.94,15-7.57s15.62-.53,16.07,5C277.67,280.88,271.81,292.14,263,292.86Zm-1.46-18c-10.59.87-12,2.83-11.93,3.92.23,2.86,6.43,11.25,13.12,10.7s11.45-9.83,11.22-12.7C273.84,275.69,272.11,274,261.52,274.86Z"/><path class="a5680bed-1684-4b9b-bdee-8fdba373103c" d="M102.76,246.56a1.25,1.25,0,0,1-.91-.39c-6.21-4.93-11.35-9.12-16.14-13.17-2-1.7-4.09-3.45-6.15-5.21C71,220.42,63,213.13,55.85,206.12,32.46,183.2,16.5,161.81,8.4,142.53A82.82,82.82,0,0,1,2.34,120.7c-.1-.78-.19-1.55-.25-2.31-2.63-24,.9-44.8,10.5-61.81.06-.13.17-.33.29-.54a2.75,2.75,0,0,0,.17-.29A86.67,86.67,0,0,1,39.89,27.5c.37-.27.78-.54,1.19-.81l.09-.06c.43-.31.89-.61,1.39-.91,1.23-.79,2.62-1.64,4.09-2.49,1.82-1,3.7-2,5.6-3l.21-.11c.23-.12.47-.22.72-.33,1-.51,2.09-1,3.18-1.54.8-.39,1.65-.77,2.49-1.13s1.67-.73,2.5-1.09,1.64-.67,2.46-1l.12,0c.84-.36,1.71-.68,2.59-1l.14,0A176,176,0,0,1,85.88,8.05.58.58,0,0,1,86,8c3.27-.81,6.69-1.56,10.38-2.28a1.5,1.5,0,0,1,.33-.07l.86-.16.18,0c1.81-.35,3.77-.7,5.75-1,.19-.05.48-.09.76-.14l.37-.06,3.29-.48.31,0c.73-.11,1.42-.22,2.09-.3.88-.13,1.8-.24,2.71-.35l2.75-.33c.65-.08,1.3-.14,2-.2l.61-.07c1-.11,2.07-.22,3.09-.31l.42,0a8.29,8.29,0,0,1,.85-.06c1.84-.18,3.76-.32,5.64-.42a.35.35,0,0,1,.14,0h.29l1-.07h.4c3.27-.19,6.72-.29,10.2-.31h1.86c.87,0,1.73,0,2.59,0l1.2,0c1.24,0,2.46.07,3.67.13h.1a6.6,6.6,0,0,1,.82.05c.41,0,.82,0,1.21.06,1.12.05,2.27.12,3.42.22l1.51.12h0a1.92,1.92,0,0,1,.41.05c1.19.1,2.37.2,3.55.34l.12,0c.19,0,.38,0,.57.06,1.31.16,2.6.33,3.9.52.43,0,.92.12,1.38.21.71.1,1.45.22,2.2.36h0a1.87,1.87,0,0,1,.32,0c1,.16,1.71.3,2.41.45,1.16.22,2.35.46,3.54.73a9.34,9.34,0,0,1,.92.22h.05l.52.11.64.13c.26.06.52.12.77.2.82.2,1.74.44,2.63.68,2.58.7,5.19,1.51,7.76,2.41l.13.05c.36.11.7.23,1,.35l.1,0L190,9a86.47,86.47,0,0,1,32.82,20.8l.26.27.47.51c13.4,14.05,21.89,33.37,25.19,57.37.13.71.23,1.48.32,2.26a83.93,83.93,0,0,1-.53,22.64c-3.17,20.73-13.44,45.37-30.54,73.25-5.17,8.48-11.12,17.5-17.69,26.78-5.32,7.55-11.09,15.39-17.17,23.3a1,1,0,0,1-.08.11,1.22,1.22,0,0,1-.83.49l-79.33,9.81Z"/><path d="M140.59,2.5h.72l.13,0h.87c.85,0,1.69,0,2.53,0l1.22,0c1.22,0,2.43.06,3.62.13a6.48,6.48,0,0,1,.89,0c.41,0,.82,0,1.21.07,1.15,0,2.28.12,3.42.21l1.59.14h.06a.63.63,0,0,1,.19,0c1.21.11,2.43.21,3.62.35h.05c.21,0,.43,0,.64.08,1.3.15,2.58.32,3.86.51.45,0,.91.12,1.35.2.8.11,1.59.25,2.41.4l0,0h0c.81.13,1.65.28,2.44.46,1.19.22,2.36.46,3.54.72a7.85,7.85,0,0,1,.9.22h0c.31,0,.59.12.91.18s.64.13.94.23c.9.22,1.8.46,2.68.7,2.61.7,5.18,1.5,7.67,2.38a1.15,1.15,0,0,1,.17.06c.38.12.74.25,1.11.38a.47.47,0,0,1,.1,0,85.16,85.16,0,0,1,32.42,20.52c.23.24.47.47.67.71,12.62,13.24,21.47,31.72,24.91,56.74.14.74.23,1.48.32,2.25a82.13,82.13,0,0,1-.53,22.29c-3.57,23.42-15.69,48.85-30.37,72.78-5.6,9.2-11.6,18.17-17.65,26.72-5.79,8.23-11.62,16.08-17.21,23.36v0l-79.33,9.81v0C97.49,241.12,92,236.7,86.51,232c-2.05-1.7-4.08-3.44-6.14-5.2-8-6.82-16-14.06-23.65-21.61-20-19.66-38-41.35-47.17-63.19a81.47,81.47,0,0,1-6-21.49c-.09-.76-.19-1.51-.24-2.26C.59,93.21,4.68,73.12,13.68,57.19c.13-.28.31-.56.47-.85A85.27,85.27,0,0,1,40.59,28.53c.39-.28.79-.54,1.18-.8,0,0,.06,0,.07-.05s0,0,0,0c.42-.31.87-.59,1.32-.86,1.33-.87,2.7-1.69,4.07-2.48q2.74-1.56,5.62-3l0,0h0l.73-.34c1.06-.54,2.14-1.06,3.22-1.56.8-.39,1.63-.76,2.45-1.12l2.5-1.08c.85-.36,1.7-.69,2.55-1s1.7-.68,2.57-1h0A173.48,173.48,0,0,1,86.18,9.26h0Q91.39,8,96.72,7h0a.26.26,0,0,1,.15,0l.92-.17.12,0c1.91-.37,3.84-.71,5.78-1,.38-.09.78-.14,1.16-.21h0q1.77-.27,3.54-.51c.69-.11,1.39-.21,2.08-.3.89-.13,1.81-.24,2.7-.35S115,4.12,115.93,4c.71-.09,1.4-.16,2.09-.22l.15,0c1.13-.12,2.27-.24,3.4-.34h0c.39,0,.79-.07,1.17-.08,2-.19,3.91-.33,5.86-.44l0,0h.06l1.1-.08,0,0a2.53,2.53,0,0,1,.38,0h0q5.22-.3,10.32-.31h0m0-2.5h-.24c-3.45,0-6.87.12-10.17.31h-.53l-.7,0h-.57l-.17,0c-1.84.1-3.72.25-5.6.42-.28,0-.56,0-.84.06l-.36,0h-.1c-1,.09-2.09.2-3.13.31l-.27,0-.16,0h-.11c-.67.07-1.33.13-2,.22-.87.09-1.8.2-2.73.32s-1.85.22-2.76.36c-.62.07-1.32.18-2,.28h-.1l-.22,0c-1.11.15-2.21.31-3.31.48h-.09l-.35.06c-.28,0-.56.09-.83.15-1.93.29-3.85.63-5.72,1h0l-.15,0-.62.11-.25.05-.39.08c-3.65.71-7,1.46-10.34,2.28l-.18,0a177.68,177.68,0,0,0-19.31,5.91l-.18.06c-.86.31-1.77.65-2.67,1h0c-.84.34-1.68.67-2.52,1s-1.69.72-2.54,1.1-1.76.77-2.53,1.15c-1.14.53-2.19,1-3.19,1.54-.22.1-.47.21-.74.35l-.17.09c-1.92,1-3.83,2-5.66,3-1.49.85-2.89,1.7-4.16,2.52-.5.31-1,.62-1.41.92l-.06,0,0,0h0c-.41.27-.82.54-1.23.83A87.88,87.88,0,0,0,12,55.09a.21.21,0,0,1,0,.06c0,.09-.1.17-.15.26l-.34.62C1.76,73.24-1.81,94.27.85,118.52c.06.8.16,1.58.25,2.34A84,84,0,0,0,7.25,143c8.27,19.71,23.89,40.64,47.72,64,7.16,7,15.16,14.34,23.77,21.73l.06,0c2,1.71,4.07,3.48,6.12,5.18,4.8,4.06,10,8.26,16.15,13.18a2.52,2.52,0,0,0,1.69.66,1.51,1.51,0,0,0,.3,0L182.39,238a2.53,2.53,0,0,0,1.83-1.17c6.06-7.9,11.82-15.72,17.12-23.25,6.58-9.31,12.55-18.34,17.74-26.86,17.18-28,27.51-52.81,30.7-73.7a84.82,84.82,0,0,0,.54-23c-.09-.76-.19-1.54-.32-2.33-3.34-24.21-11.93-43.73-25.53-58-.15-.18-.31-.34-.48-.51l-.21-.22s0,0-.05-.05a87.79,87.79,0,0,0-33.26-21.1l-.21-.08-.09,0-1-.36-.21-.07c-2.58-.9-5.19-1.72-7.79-2.42-1-.28-1.88-.5-2.66-.69-.29-.09-.56-.15-.79-.2l-.24-.05-.13,0L177,3.79l-.53-.1c-.34-.1-.66-.17-1-.24-1.26-.27-2.42-.51-3.56-.73-.7-.15-1.47-.29-2.39-.44a2.44,2.44,0,0,0-.46-.07c-.81-.14-1.5-.26-2.15-.35-.45-.08-.94-.16-1.44-.21-1.34-.2-2.6-.37-3.85-.51l-.58-.08H161c-1.18-.14-2.37-.25-3.52-.34a2.78,2.78,0,0,0-.58-.06L155.38.53c-1.16-.09-2.29-.17-3.45-.22-.35,0-.76,0-1.17-.06a7.47,7.47,0,0,0-1,0c-1.19-.06-2.41-.11-3.64-.13l-1.22,0C144,0,143,0,142.31,0h-1.72Z"/><path class="a87aeac9-ccbf-4f4a-8735-31f1358c9f71" d="M134.4,238.76l.69,2.53-32.33,4c-5-4.82-9.76-9.54-14.31-14.17C4.23,145,1.24,91.79,19.66,56.45c5.86-11.22,13.87-20.63,22.11-28.72l.07-.07s0,0,0,0c.44-.29.87-.57,1.32-.84,1.33-.87,2.7-1.69,4.07-2.48,1.85-1.06,3.74-2.07,5.65-3a0,0,0,0,1,0,0s0,0,0,0l.28-.19.06,0a1.74,1.74,0,0,1,.37-.13c1.06-.54,2.11-1.05,3.22-1.54.8-.39,1.63-.76,2.45-1.12l2.5-1.08c.85-.36,1.7-.69,2.55-1s1.7-.68,2.57-1c0,0,0,0,0,0h0a174.31,174.31,0,0,1,19.2-5.88h0Q91.39,8,96.71,6.93h0v0l.15,0,.93-.17v0l.16.94.78,4.75L104.28,46,106,56.61v.06l0,.13,0,.25,1.94,11.73L127,183.64l3.57,19.93,2,11.08L134,237.21Z"/><path class="a5680bed-1684-4b9b-bdee-8fdba373103c" d="M135.43,241.25,105.23,245c-.58-.69-1.17-1.37-1.74-2l-1.68-2c-3.31-3.9-6.54-7.78-9.65-11.66-53-65.56-79.35-127.8-62.69-174.07a82.31,82.31,0,0,1,23.38-33.9s0,0,0,0l0,0a0,0,0,0,1,0,0s0,0,0,0l.28-.19.06,0a1.74,1.74,0,0,1,.37-.13c1.06-.54,2.11-1.05,3.22-1.54.8-.39,1.63-.76,2.45-1.12l2.5-1.08c.85-.36,1.7-.69,2.55-1s1.7-.68,2.57-1c0,0,0,0,0,0h0a174.31,174.31,0,0,1,19.2-5.88h0Q91.39,8,96.71,6.93h0v0l.15,0,.93-.17.11,0c1.91-.37,3.85-.71,5.79-1v0l.13,2,.84,12.13v.12l0,.34,1.75,25.44,1.6,23.07,1,15.17,2,29.86,0,.19,0,.69v0l.05.71,5.91,85.78s1.87,3.71,4.64,9.51c2.1,4.41,4.73,10,7.44,16.1,0,.06.05.11.07.17v0c.23.47.45,1,.66,1.44v0c.53,1.21,1.07,2.42,1.59,3.66l.32.69c.84,2,1.67,3.94,2.49,5.91C134.76,239.59,135.09,240.42,135.43,241.25Z"/><path class="a87aeac9-ccbf-4f4a-8735-31f1358c9f71" d="M135.83,241.2l-27.7,3.43q-4.26-6.27-8.22-12.31v0c-1.15-1.75-2.3-3.51-3.4-5.23C40.93,140.66,31.35,88.78,42.34,53.65a84,84,0,0,1,13-25.23A109.85,109.85,0,0,1,67,15.14h0v0h0a174.31,174.31,0,0,1,19.2-5.88h0Q91.39,8,96.71,6.93h0v0l.15,0,.93-.17.11,0v0l.14,1,.68,4.72,4.86,33.64,3.2,22.14v0l.08.55,0,.25L109.09,84,126.85,206.7l1.37,9.51L130,228.46v0l.08.5,1.51,3.16.32.69c.58,1.21,1.28,2.69,2.07,4.36C134.54,238.44,135.17,239.77,135.83,241.2Z"/><path class="a5680bed-1684-4b9b-bdee-8fdba373103c" d="M144.68,240.11,112.9,244l-.59-1.07q-5.53-9.69-10.48-18.89Q98.53,218,95.48,212v0C59.37,141.81,48.3,91,60.41,51.72c0-.1.07-.22.09-.32C65.39,35.67,74,21.83,86.18,9.26h0Q91.39,8,96.71,6.93h0v0l.15,0,.93-.17.11,0c1.91-.37,3.85-.71,5.79-1,.37-.09.77-.14,1.15-.2h0c1.18-.18,2.34-.35,3.52-.51.69-.11,1.39-.21,2.08-.3v0l1.31,3,2.52,5.73.19,1.42,0,.23,3.9,29.17L137,182.67,138.77,196l4.36,32.52Z"/><path class="a87aeac9-ccbf-4f4a-8735-31f1358c9f71" d="M118,3.79v0l.18,1.62,4.06,38.33L137,182.67l1.44,13.65,3.49,32.9,1.1,10.32.08.76-22.22,2.75c-.61-1.32-1.22-2.64-1.83-4-2.91-6.41-5.84-13.18-8.72-20.2C89.8,168.89,71.72,105.26,82.4,48.69A148.68,148.68,0,0,1,96.7,7a0,0,0,0,0,0,0h0v0l.15,0,.93-.17.11,0c1.91-.37,3.85-.71,5.79-1,.37-.09.77-.14,1.15-.2h0c1.18-.18,2.34-.35,3.52-.51.69-.11,1.39-.21,2.08-.3.89-.13,1.8-.24,2.7-.35h0c.9-.12,1.81-.23,2.71-.32C116.62,3.92,117.33,3.86,118,3.79Z"/><path class="a14740e6-9e52-484e-b39b-f8d491a9b4f4" d="M149.54,184.58v0q1.22,16.93,2.1,35.18v0a0,0,0,0,1,0,0c.08,1.44.15,2.91.21,4.35v0c.2,4.91.4,9.88.56,14.92l-20,2.48c-.6-2.78-1.19-5.53-1.76-8.27h0c-.45-2.22-.91-4.39-1.35-6.56q-2-9.66-3.75-19c-6.61-34.77-11.16-66.09-14.29-93.08v0c-2-17.32-3.41-32.87-4.39-46.46v0c-.29-4-.53-7.77-.75-11.41l0-.13v-.06q-.33-5.69-.58-10.77c-.5-10.65-.73-19.36-.79-25.91v-.12c0-.39,0-.76,0-1.12,0-1.16,0-2.25,0-3.25,0-.82,0-1.56,0-2.27,0-.41,0-.8,0-1.17a1.2,1.2,0,0,0,0-.19c0-.42,0-.85,0-1.24,0-.8,0-1.49,0-2.12,0-.31,0-.6,0-.85V7.54c0-.41,0-.76,0-1,0,0,0,0,0,0a2.85,2.85,0,0,1,0-.31c0-.27,0-.45,0-.58s0,0,0,0h0c1.18-.18,2.34-.35,3.52-.51.69-.11,1.39-.21,2.08-.3.89-.13,1.8-.24,2.7-.35h0c.9-.12,1.81-.23,2.71-.32.69-.09,1.4-.15,2.09-.22,1.18-.13,2.36-.25,3.55-.36v0l0,.1s0,0,0,.06.09.26.13.45.09.26.13.43.14.48.23.78a9.63,9.63,0,0,1,.28,1,2.7,2.7,0,0,1,.13.43c.28,1,.62,2.31,1,3.83.1.39.21.8.31,1.24s.22.88.34,1.33c.15.64.31,1.3.49,2,.11.45.23.92.35,1.39s.19.81.28,1.23.21.84.32,1.27.27,1.11.4,1.7c.31,1.28.62,2.65.93,4.08.26,1.12.52,2.28.78,3.49a8.08,8.08,0,0,1,.2.85c.37,1.71.75,3.49,1.15,5.36.22,1,.42,2,.62,3q.54,2.52,1.08,5.25a4.94,4.94,0,0,1,.1.53q1,5,2,10.55v.08c.69,3.63,1.39,7.42,2.08,11.44l0,.23c2.28,13,4.62,27.86,6.83,44.47l0,.19C144.84,132.12,147.53,157,149.54,184.58Z"/><path class="a87aeac9-ccbf-4f4a-8735-31f1358c9f71" d="M182.08,235.48l-32.33,4,.05-2.62,0-1.61L145.72,213l-1.52-22.53-.62-8.91L133.94,65.65l-1-11.79v-.44L132,42.55,129.22,8.7l-.41-4.83-.08-1v0l.94-.06.15,0v0h0c.12,0,.27,0,.39,0q5.22-.3,10.32-.31s0,0,0,0c.23,0,.49,0,.72,0a.64.64,0,0,1,.19,0c1.13,0,2.23,0,3.34,0l1.22,0c1.22,0,2.43.06,3.62.13a6.48,6.48,0,0,1,.89,0c.41,0,.82,0,1.21.07,1.15,0,2.28.12,3.42.21l1.59.14a.54.54,0,0,1,.25,0c1.21.11,2.43.21,3.62.35h.05c.21,0,.43,0,.64.08,1.3.15,2.58.32,3.86.51.45,0,.91.12,1.35.2.8.11,1.59.25,2.41.4,0,0,0,0,.05,0,.81.13,1.65.28,2.44.46,1.19.22,2.36.46,3.54.72l.43,0,.36.11,1.06.26c.32.08.64.13.94.23.9.22,1.8.46,2.68.7,2.58.66,5.12,1.44,7.61,2.31,0,0,0,0,0,0l.19.12c9.93,5.82,19.94,13,28.33,22.4C244.54,63.45,254.25,119.9,182.08,235.48Z"/><path class="a5680bed-1684-4b9b-bdee-8fdba373103c" d="M181.94,231.06l-1.13,2.31c-.4.8-.8,1.61-1.21,2.41l-30.19,3.74c.12-.89.25-1.77.39-2.66.32-2.11.64-4.24,1-6.34,0-.26.1-.49.14-.75.21-1.33.43-2.63.66-3.94v0c.09-.51.18-1,.29-1.56v0a1.16,1.16,0,0,1,0-.18c2.65-15.2,5.47-27.79,5.47-27.79L154.26,179l-12.08-67.39-.13-.7v0l-.12-.68,0-.19-5.29-29.46-2.67-14.89-4.09-22.83-4.5-25.1-.06-.34,0-.12-2.14-12-.36-1.91v0c1.95-.19,3.91-.33,5.85-.44h.12l.94-.06.15,0v0h0c.12,0,.27,0,.39,0q5.22-.3,10.32-.31s0,0,0,0c.23,0,.49,0,.72,0a.64.64,0,0,1,.19,0c1.13,0,2.23,0,3.34,0l1.22,0c1.22,0,2.43.06,3.62.13a6.48,6.48,0,0,1,.89,0c.41,0,.82,0,1.21.07,1.15,0,2.28.12,3.42.21l1.59.14a.54.54,0,0,1,.25,0c1.21.11,2.43.21,3.62.35h.05c.21,0,.43,0,.64.08,1.3.15,2.58.32,3.86.51.45,0,.91.12,1.35.2.8.11,1.59.25,2.41.4,0,0,0,0,.05,0,.81.13,1.65.28,2.44.46,1.19.22,2.36.46,3.54.72l.43,0,.36.11.11.07h0a0,0,0,0,1,0,0,88,88,0,0,1,14.46,9.36,79.12,79.12,0,0,1,16.4,17.76C235.89,76.53,222.55,148.88,181.94,231.06Z"/><path class="a87aeac9-ccbf-4f4a-8735-31f1358c9f71" d="M181.68,222.18v0q-2.38,6.84-5,13.94L149,239.57c.29-1.55.58-3,.82-4.32l.94-4.73c0-.26.1-.49.14-.75.45-2.19.7-3.44.7-3.44l0-.5v0l-1.28-12.31-2.73-26.64L136.61,80.54l-1.54-15,0-.23,0-.55v0L132.7,42.47,129.22,8.7l-.5-4.78-.1-1v0h.12l.94-.06.15,0v0h0c.12,0,.27,0,.39,0q5.22-.3,10.32-.31s0,0,0,0c.23,0,.49,0,.72,0a.64.64,0,0,1,.19,0c1.13,0,2.23,0,3.34,0l1.22,0c1.22,0,2.43.06,3.62.13a6.48,6.48,0,0,1,.89,0c.41,0,.82,0,1.21.07,1.15,0,2.28.12,3.42.21l1.59.14a.54.54,0,0,1,.25,0c1.21.11,2.43.21,3.62.35h.05a111.21,111.21,0,0,1,14.54,10A83.84,83.84,0,0,1,194,34.89c.82,1.31,1.59,2.69,2.37,4.08C213.77,71.48,215.23,125.21,181.68,222.18Z"/><path class="a5680bed-1684-4b9b-bdee-8fdba373103c" d="M193.07,100.61c.81,17.08-.43,36.29-3.7,57.93l0,.16q-3,20-8.31,42.73v0q-3.93,16.83-9.09,35.28l-31.78,3.93-1.15-10-3.56-31.45-1.83-16.08L117.86,44.3l-3.31-29.24-.21-1.66,1.18-6.9L115.93,4V4c.69-.09,1.4-.15,2.09-.22,1.18-.13,2.36-.25,3.55-.36h0c.38,0,.77-.07,1.15-.08,1.95-.19,3.91-.33,5.85-.44h.12l.94-.06.15,0v0h0c.12,0,.27,0,.39,0q5.22-.3,10.32-.31s0,0,0,0h0c14.89,9.2,26.62,20.55,35.19,34.61l.17.29C186.22,54.32,191.9,75.07,193.07,100.61Z"/><path class="a87aeac9-ccbf-4f4a-8735-31f1358c9f71" d="M173.44,150.62c-.25,15.64-1.44,31.09-3.16,45.8a.11.11,0,0,1,0,.05c-1.7,14.61-3.93,28.52-6.31,41.25l-22.22,2.75-.08-.51-1.4-9.9-4.43-31.27-2.21-15.7L114,44.78,108.67,6.69,108.42,5V4.92l4.81-.59c.9-.12,1.81-.23,2.71-.32.69-.09,1.4-.15,2.09-.22,1.18-.13,2.36-.25,3.55-.36h0c.38,0,.77-.07,1.15-.08,1.95-.19,3.91-.33,5.85-.44h.12l.94-.06.15,0v0l0,0a.81.81,0,0,1,.09.1,148.7,148.7,0,0,1,23.95,36.9C169.41,73.4,174.11,112.66,173.44,150.62Z"/><path class="a5680bed-1684-4b9b-bdee-8fdba373103c" d="M149.54,184.58v0q1.24,16.91,2.13,35.1c.08,1.42.14,2.87.21,4.31q.31,7.45.57,15.13l-20.05,2.48c-.59-2.77-1.18-5.52-1.75-8.26-.46-2.13-.9-4.25-1.33-6.34v0c-1.32-6.52-2.6-12.93-3.8-19.21-6.67-35.06-11.25-66.6-14.36-93.77l0-.19c-1.9-16.64-3.26-31.63-4.21-44.78l0-.25c-.31-4.1-.56-8-.79-11.73-.23-3.94-.45-7.69-.63-11.21-.48-10.46-.71-19.05-.78-25.57,0-.54,0-1.08,0-1.58,0-1.16,0-2.25,0-3.25,0-.82,0-1.56,0-2.27,0-.41,0-.8,0-1.17a1.2,1.2,0,0,0,0-.19c0-.42,0-.85,0-1.24,0-.8,0-1.49,0-2.12,0-.31,0-.6,0-.85V7.54c0-.41,0-.76,0-1,0,0,0,0,0,0a2.85,2.85,0,0,1,0-.31c0-.29,0-.49,0-.63v0h0c1.18-.18,2.34-.35,3.52-.51V4.92l4.81-.59c.9-.12,1.81-.23,2.71-.32.69-.09,1.4-.15,2.09-.22,1.18-.13,2.36-.25,3.55-.36h0a.28.28,0,0,1,0,.13s0,0,0,.06.09.26.13.45.09.26.13.43a6.82,6.82,0,0,1,.23.78,9.63,9.63,0,0,1,.28,1,2.7,2.7,0,0,1,.13.43c.31,1,.64,2.33,1,3.83.1.39.21.8.31,1.24s.22.88.34,1.33c.15.64.31,1.3.49,2,.11.45.23.92.35,1.39.07.25.12.51.19.77l0,.12c.13.52.25,1.07.38,1.61s.27,1.11.4,1.7c.31,1.28.62,2.65.93,4.08.26,1.12.52,2.28.78,3.49a8.08,8.08,0,0,1,.2.85c.39,1.69.76,3.49,1.15,5.36.22,1,.42,2,.62,3q.54,2.52,1.08,5.25a4.94,4.94,0,0,1,.1.53q1,4.82,2,10.19v.06q1,5.35,2.05,11.25v0c2.36,13.41,4.77,28.84,7.06,46.12v0C144.92,132.61,147.56,157.31,149.54,184.58Z"/><path class="a5680bed-1684-4b9b-bdee-8fdba373103c" d="M121.59,3.43h0v0a15.17,15.17,0,0,1-3.38,2L115.52,6.5c-2,.73-3.62,1.2-3.62,1.2l-.09,0-3.14-1-3.79-1.18v0h0c1.47-2.85,14.58-4.42,16.67-2.06Z"/><path class="a87aeac9-ccbf-4f4a-8735-31f1358c9f71" d="M129.94,3c.19.29-.31.6-1.13.92l-.09,0a45.37,45.37,0,0,1-5.53,1.44l-.07-.09-1.53-1.83,0,0c.72-1.35,6.88-1.55,8.19-.6l0,0A.81.81,0,0,1,129.94,3Z"/><path class="a5680bed-1684-4b9b-bdee-8fdba373103c" d="M139.18,4.54c-2.85.16-9.33-1.69-9.33-1.69s0,0,0,0c1.61-1.71,9.77-1.17,10.71-.32,0,0,0,0,0,0h0C141.45,3.37,142,4.36,139.18,4.54Z"/><path class="a87aeac9-ccbf-4f4a-8735-31f1358c9f71" d="M146.3,4.05l-5.65-1.53h-.06c2.25-1.37,16.35-1.23,20.07,1h.05C164.23,5.76,146.3,4.05,146.3,4.05Z"/><path class="a5680bed-1684-4b9b-bdee-8fdba373103c" d="M176,6.17c0,.34-11.86-1.48-11.86-1.48l-3.41-1.15h-.05c3.22-.61,12.4,1.6,14.77,2.41l.36.11.11.07h0A0,0,0,0,1,176,6.17Z"/><path class="a87aeac9-ccbf-4f4a-8735-31f1358c9f71" d="M104.88,5.51l0,0-1,2.12,0,.08a43.91,43.91,0,0,1-5.74,0s-.06,0-.1,0C97,7.57,96.44,7.35,96.74,7a.09.09,0,0,1,0,0c1-1.23,7.06-2.54,8.09-1.4h0Z"/><path class="a5680bed-1684-4b9b-bdee-8fdba373103c" d="M96.71,6.93V7a0,0,0,0,1,0,0c-.53.3-5.94,3.37-8.6,3.89s-2.49-.58-1.89-1.61h0v0C86.86,8.21,94.72,5.67,96.71,6.93Z"/><path class="a87aeac9-ccbf-4f4a-8735-31f1358c9f71" d="M86.21,9.24h0l-5.11,2.86s-17,6-14.09,3h0v0h0C70.08,12,83.64,8.47,86.21,9.24Z"/><path class="a5680bed-1684-4b9b-bdee-8fdba373103c" d="M67,15.12v0h0l-3,1.94s-11.94,5-11.09,4.26c0,0,0,0,0,0l0,0h0v0s0,0,0,0l.28-.19.06,0C55.43,19.67,63.73,15.33,67,15.12Z"/><path class="a7860ee2-8f50-4dbd-8725-c8e639966cfd" d="M102.49,246.93l48.35,63.59s19.93-8.68,20-8.6,12.25-65.24,12.25-65.24"/><line class="a7860ee2-8f50-4dbd-8725-c8e639966cfd" x1="130.74" y1="244.04" x2="157.93" y2="307.44"/><line class="a7860ee2-8f50-4dbd-8725-c8e639966cfd" x1="155.66" y1="239.57" x2="164.4" y2="306.31"/><path class="b41d67c5-4094-472d-b394-a0b3bc7b931a" d="M195.3,373.37c-4.16-4.33-39.67-40.19-43.65-59.07-1.91-9.07.95-13.28,4.9-15.21s8.81-2.22,15.95,3.74c9.32,7.78,43.37,49.53,43.37,49.53s-2,23.2-2,34.28C211.3,388,199.45,377.7,195.3,373.37Z"/><path d="M184.36,314.73S180,317.8,175,326.56a39.31,39.31,0,0,0,13.2-7Z"/><path d="M191.25,322.77s-7.46,6.53-9.25,12.46c0,0,8.91-1,12.65-7.29Z"/><ellipse class="b6569600-3b66-49eb-aca0-b8dfd71695f2" cx="162.83" cy="315.57" rx="6.98" ry="5.98" transform="translate(-149.98 147.48) rotate(-34.46)"/><ellipse class="b6569600-3b66-49eb-aca0-b8dfd71695f2" cx="158.69" cy="305.12" rx="3.27" ry="2.8" transform="translate(-144.79 143.31) rotate(-34.46)"/><ellipse class="b6569600-3b66-49eb-aca0-b8dfd71695f2" cx="166.24" cy="305.05" rx="2.23" ry="2.6" transform="translate(-143.42 147.57) rotate(-34.46)"/><ellipse class="b6569600-3b66-49eb-aca0-b8dfd71695f2" cx="154.11" cy="310.52" rx="1.67" ry="2.89" transform="translate(-48.05 28.91) rotate(-9.28)"/></g></g></svg>