<svg xmlns="http://www.w3.org/2000/svg" viewBox="0 0 19.64 20.46"><defs><style>.cls-1{fill:#fff;}</style></defs><title>資產 1</title><g id="圖層_2" data-name="圖層 2"><g id="圖層_1-2" data-name="圖層 1"><path class="cls-1" d="M18.68,20.46H1a1,1,0,0,1-1-1V6.34A.3.3,0,0,1,.3,6h19a.3.3,0,0,1,.31.3V19.5a1,1,0,0,1-1,1M.61,6.65V19.5a.35.35,0,0,0,.35.35H18.68A.35.35,0,0,0,19,19.5V6.65Z"/><path class="cls-1" d="M19.33,6.65H.3A.31.31,0,0,1,0,6.34V3.25a1,1,0,0,1,1-1H3.88a.3.3,0,0,1,.3.31v.63a1,1,0,0,0,2,0V2.6a.31.31,0,0,1,.3-.31h6.61a.31.31,0,0,1,.31.31v.63a1,1,0,0,0,2,0V2.6a.3.3,0,0,1,.3-.31h2.92a1,1,0,0,1,1,1V6.34a.31.31,0,0,1-.31.31M.61,6H19V3.25a.35.35,0,0,0-.35-.35H16.06v.33a1.62,1.62,0,0,1-3.24,0V2.9h-6v.33a1.63,1.63,0,0,1-3.25,0V2.9H1a.35.35,0,0,0-.35.35Z"/><path class="cls-1" d="M5.2,4.85A1.63,1.63,0,0,1,3.57,3.23V1.62a1.63,1.63,0,0,1,3.25,0V3.23A1.63,1.63,0,0,1,5.2,4.85M5.2.61a1,1,0,0,0-1,1V3.23a1,1,0,0,0,2,0V1.62a1,1,0,0,0-1-1"/><path class="cls-1" d="M14.44,4.85a1.63,1.63,0,0,1-1.62-1.62V1.62a1.62,1.62,0,0,1,3.24,0V3.23a1.62,1.62,0,0,1-1.62,1.62m0-4.24a1,1,0,0,0-1,1V3.23a1,1,0,1,0,2,0V1.62a1,1,0,0,0-1-1"/><path class="cls-1" d="M5.64,12.24H2.79a.3.3,0,0,1-.3-.3V9.1a.31.31,0,0,1,.3-.31H5.64a.3.3,0,0,1,.3.31v2.84a.29.29,0,0,1-.3.3"/><path class="cls-1" d="M11.18,12.24H8.34a.3.3,0,0,1-.31-.3V9.1a.31.31,0,0,1,.31-.31h2.84a.3.3,0,0,1,.3.31v2.84a.29.29,0,0,1-.3.3"/><path class="cls-1" d="M16.72,12.24H13.88a.3.3,0,0,1-.31-.3V9.1a.31.31,0,0,1,.31-.31h2.84A.31.31,0,0,1,17,9.1v2.84a.3.3,0,0,1-.31.3"/><path class="cls-1" d="M5.64,17.79H2.79a.31.31,0,0,1-.3-.31V14.64a.31.31,0,0,1,.3-.31H5.64a.3.3,0,0,1,.3.31v2.84a.3.3,0,0,1-.3.31"/><path class="cls-1" d="M11.18,17.79H8.34A.31.31,0,0,1,8,17.48V14.64a.31.31,0,0,1,.31-.31h2.84a.3.3,0,0,1,.3.31v2.84a.3.3,0,0,1-.3.31"/><path class="cls-1" d="M16.72,17.79H13.88a.31.31,0,0,1-.31-.31V14.64a.31.31,0,0,1,.31-.31h2.84a.31.31,0,0,1,.31.31v2.84a.31.31,0,0,1-.31.31"/></g></g></svg>