<svg xmlns="http://www.w3.org/2000/svg" viewBox="0 0 365.6 91.81"><defs><style>.cls-1{fill:#faa633;}.cls-2{fill:#3ec2cf;}.cls-3{fill:#f04e28;}.cls-4{fill:#fff;}</style></defs><title>資產 1</title><g id="圖層_2" data-name="圖層 2"><g id="Layer_1" data-name="Layer 1"><path class="cls-1" d="M52.37,90.59H44.68A37,37,0,0,1,81.62,53.65v7.69A29.29,29.29,0,0,0,52.37,90.59Z"/><path class="cls-2" d="M7.35,90.59H0A81.71,81.71,0,0,1,81.62,9v7.35A74.36,74.36,0,0,0,7.35,90.59Z"/><path class="cls-3" d="M35.63,90.59H27.8A53.88,53.88,0,0,1,81.62,36.77V44.6A46,46,0,0,0,35.63,90.59Z"/><path class="cls-4" d="M100.59,72l-3.9.79c.72,2.64,1.43,6,2.15,9.92l3.9-.84C102,78.34,101.31,75,100.59,72Z"/><path class="cls-4" d="M110.62,32.76h.1v2.88h8V9h-8v2.82h-.1c-1-1.63-3.4-3.73-7.77-3.73-7.09,0-13.37,5.46-13.37,14.19,0,7.62,4.94,14.24,13.37,14.24C106,36.55,109.28,35.35,110.62,32.76ZM97.43,22.4c0-3,2-6.85,6.58-6.85a6.55,6.55,0,0,1,6.71,6.76c0,2.59-1.68,6.81-6.67,6.81C99.26,29.12,97.43,24.9,97.43,22.4Z"/><path class="cls-4" d="M143.66,10.42a11.45,11.45,0,0,0-6.81-2.3c-4.75,0-6.43,2.44-7.24,3.73h-.1V9h-7.43V35.64h8V21.16c0-1.64,0-5.57,4.56-5.57,4.17,0,4.17,3.65,4.17,5.52V35.64h8V19C146.73,13.77,145.09,11.67,143.66,10.42Z"/><path class="cls-4" d="M160.1,36.5c2,0,5.28-.29,6.91-3.69h.09v2.83h7.53V9h-8V23.65c0,4.22-2.25,5.41-4.55,5.41-4.27,0-4.27-3.49-4.27-5.31V9h-8V25c0,3.64.28,5.56,2.4,8.19C154.64,36.11,158.47,36.5,160.1,36.5Z"/><path class="cls-4" d="M191.54,29.79a6,6,0,0,1-6.24-5h19.95a11.56,11.56,0,0,0,.19-2.12c0-8.1-5.94-14.52-14.05-14.52a14.19,14.19,0,0,0,.15,28.38,13,13,0,0,0,7.57-2.4,15.51,15.51,0,0,0,5.41-6.81h-8.14A5.66,5.66,0,0,1,191.54,29.79Zm-.1-15a5.88,5.88,0,0,1,6,4.55H185.4A5.88,5.88,0,0,1,191.44,14.83Z"/><path class="cls-4" d="M114.39,59.23l3.18-2.9C114.88,52.9,112,49.57,109,46.4l.44-1.42-3.9-1.22A41.14,41.14,0,0,1,95.49,56.33l1.93,3.9A13.2,13.2,0,0,0,100,58v2.69h4.06v4.76h-7.3V69.1h7.3V85l-8.35,1.22.83,4,19.33-2.91.44-3.9-8.19,1.21V69.1h7.53V65.41h-7.53V60.65h4.12V57H101.48a30.91,30.91,0,0,0,5.16-7.23A117.59,117.59,0,0,1,114.39,59.23Z"/><path class="cls-4" d="M109.38,81.3l3.84,1Q114.54,78,116,72.8L112.18,72A83.69,83.69,0,0,1,109.38,81.3Z"/><path class="cls-4" d="M152.27,74.7h33.27l-12.68,3.91v7.54c0,1.33-.88,1.91-2.14,1.91-2.14,0-5.77-.27-8.9-.53L163,91.59c2.42.16,4.95.22,7.8.22,4.45,0,6.81-2,6.81-5.6V80.88L196,74.49V71H152.27Z"/><path class="cls-4" d="M122.67,76.34l18.19,0a1.15,1.15,0,0,0,1.14-1.1V60.37a1.15,1.15,0,0,0-1.1-1.14H122.67V50.15h21.69V46.4H119.54a1.15,1.15,0,0,0-1.15,1.16V88.8A1.15,1.15,0,0,0,119.54,90H145V86.21h-22.3Zm0-13.41h15v9.66h-15Z"/><path class="cls-4" d="M192.3,68.1a1.16,1.16,0,0,0,1.15-1.16V57.69a1.15,1.15,0,0,0-1.15-1.15H158.14A1.16,1.16,0,0,0,157,57.69v9.25a1.16,1.16,0,0,0,1.15,1.16ZM161.71,60h27v4.54h-27Z"/><polygon class="cls-4" points="177.39 43.76 173.05 43.76 173.05 49.94 150.78 49.94 150.78 53.63 199.88 53.63 199.88 49.94 177.39 49.94 177.39 43.76"/><path class="cls-4" d="M205.08,87.2l1.72,4.37a160.4,160.4,0,0,0,18.8-4.15l-2.16-3.78C218.52,84.86,212.44,86.09,205.08,87.2Z"/><path class="cls-4" d="M234.45,87.42c6.2,1.11,12.45,2.5,18.81,4.15L255,87.2c-6.19-1.38-12.39-2.55-18.58-3.56Z"/><path class="cls-4" d="M216.07,35.64h5V13.53h4.67V9h-4.67V7.66c0-1.88,1.35-3.08,4.67-3.08V0c-2.94,0-4.33.14-6.5,1.44a7,7,0,0,0-3.18,6.22V9h-2.36v4.57h2.36Z"/><path class="cls-4" d="M231.77,33.66a11.4,11.4,0,0,0,7.61,2.65c3.37,0,6.5-1.25,7.85-3.56h.1v2.89h4.57V9h-5v14.3c0,5.83-2.84,8.48-7,8.48-3.71,0-6.65-1.74-6.65-8.34V9h-5V23.4C228.26,28.75,229.56,31.74,231.77,33.66Z"/><path class="cls-4" d="M260.43,21.09c0-5.34,2.84-8.28,7-8.28,6.64,0,6.64,6.26,6.64,8.33v14.5h5V19.84A13,13,0,0,0,277.43,13,10.87,10.87,0,0,0,268,8.23a9.46,9.46,0,0,0-7.8,3.57h-.1V9h-4.67V35.64h5Z"/><path class="cls-4" d="M295.58,36.31A11.28,11.28,0,0,0,305,31.83h.1v3.81h4.62V0h-5V12.23h-.09a11.58,11.58,0,0,0-9.06-4c-9.44,0-13.87,7.66-13.87,14.16C281.71,29.42,286.72,36.31,295.58,36.31Zm.29-23.5a9.11,9.11,0,0,1,9.25,9.53,9.2,9.2,0,1,1-18.4,0C286.72,18.16,289.71,12.81,295.87,12.81Z"/><path class="cls-4" d="M212.27,60.18a1.16,1.16,0,0,0-1.16,1.16V81.69a1.16,1.16,0,0,0,1.16,1.15H248a1.16,1.16,0,0,0,1.16-1.15V61.34A1.16,1.16,0,0,0,248,60.18Zm32.36,19.1h-29V76.41h29Zm0-6.44h-29V69.92h29Zm0-6.43h-29V63.69h29Z"/><path class="cls-4" d="M209.28,57.47H251a1.16,1.16,0,0,0,1.15-1.16V46.6A1.16,1.16,0,0,0,251,45.45H209.28a1.16,1.16,0,0,0-1.16,1.15v9.71A1.16,1.16,0,0,0,209.28,57.47ZM239,49h8.63v5H239Zm-13.17,0h8.63v5h-8.63Zm-13.16,0h8.63v5h-8.63Z"/><path class="cls-4" d="M301,82V78.85a36.42,36.42,0,0,0,7.57,3.78l2.6-3.78c-5.47-1.75-9.51-4-12.11-6.65h11.23V68.48h-9.07v-17h7.57V47.74h-7.57V43.53h-4.54v4.21H274.45V43.53h-4.54v4.21h-7.58v3.72h7.58v17h-9.07V72.2h11.45c-2.71,2.5-6.86,4.79-12.34,6.87l2.6,3.77a49,49,0,0,0,7.14-3.77V82h13.38v4.15H262.33v3.78h46.46V86.14H287.61V82ZM274.45,51.46h22.23v3.3H274.45Zm0,6.86h22.23v3.3H274.45Zm0,6.86h22.23v3.3H274.45Zm8.62,9.15v3.94H270.52a32.7,32.7,0,0,0,7.35-6.07h15.6a33.1,33.1,0,0,0,6.7,6.07H287.61V74.33Z"/><path class="cls-4" d="M357.56,78.73l-3.44-2.12-5.75,9.32h-5.45V74.12H360.4v-4H342.92V63.91h12.34V61A55.13,55.13,0,0,0,363,65L365.6,61a55.09,55.09,0,0,1-21.79-15.21l.83-1.22-4.54-1.44q-8.37,10.38-24.39,17.66L318.09,65q4.32-2.07,8-4.15v3.09h12.34v6.22H320.91v4h17.48V85.93h-5.45l-5.74-9.32-3.45,2.12,4.44,7.2h-11v4h46.69v-4H353.13ZM327.16,60a72.94,72.94,0,0,0,13.61-10.8A70.57,70.57,0,0,0,353.49,60Z"/></g></g></svg>