<svg id="圖層_1" data-name="圖層 1" xmlns="http://www.w3.org/2000/svg" viewBox="0 0 365.6 91.81"><defs><style>.cls-1{fill:#f9a532;}.cls-2{fill:#3dc1ce;}.cls-3{fill:#ef4e28;}</style></defs><path class="cls-1" d="M83.57,127.19H75.88a37,37,0,0,1,36.94-36.94v7.68A29.29,29.29,0,0,0,83.57,127.19Z" transform="translate(-31.2 -36.6)"/><path class="cls-2" d="M38.55,127.19H31.2a81.72,81.72,0,0,1,81.62-81.63v7.36A74.35,74.35,0,0,0,38.55,127.19Z" transform="translate(-31.2 -36.6)"/><path class="cls-3" d="M66.83,127.19H59a53.88,53.88,0,0,1,53.82-53.82v7.82A46,46,0,0,0,66.83,127.19Z" transform="translate(-31.2 -36.6)"/><path d="M131.79,108.6l-3.9.8c.72,2.64,1.43,6,2.14,9.92l3.9-.84C133.22,114.94,132.51,111.61,131.79,108.6Z" transform="translate(-31.2 -36.6)"/><path d="M141.82,69.36h.1v2.87h8V45.62h-8v2.83h-.1c-1-1.63-3.4-3.74-7.77-3.74-7.09,0-13.37,5.47-13.37,14.19,0,7.63,4.93,14.24,13.37,14.24C137.17,73.14,140.48,72,141.82,69.36ZM128.63,59c0-3,2-6.86,6.58-6.86a6.55,6.55,0,0,1,6.71,6.76c0,2.59-1.68,6.81-6.67,6.81A6.64,6.64,0,0,1,128.63,59Z" transform="translate(-31.2 -36.6)"/><path d="M174.86,47a11.52,11.52,0,0,0-6.81-2.3c-4.75,0-6.43,2.45-7.24,3.74h-.1V45.62h-7.43V72.23h8V57.76c0-1.64,0-5.57,4.56-5.57,4.17,0,4.17,3.65,4.17,5.52V72.23h7.95V55.6C177.92,50.37,176.29,48.26,174.86,47Z" transform="translate(-31.2 -36.6)"/><path d="M191.3,73.09c2,0,5.27-.28,6.91-3.69h.09v2.83h7.53V45.62h-8V60.25c0,4.21-2.25,5.41-4.55,5.41-4.27,0-4.27-3.5-4.27-5.31V45.62h-8V61.54c0,3.65.28,5.56,2.4,8.2C185.84,72.71,189.67,73.09,191.3,73.09Z" transform="translate(-31.2 -36.6)"/><path d="M222.73,66.38a6,6,0,0,1-6.23-5h19.95a11.44,11.44,0,0,0,.19-2.11c0-8.1-5.95-14.53-14-14.53a14.19,14.19,0,0,0,.14,28.38,13,13,0,0,0,7.58-2.39,15.64,15.64,0,0,0,5.41-6.81h-8.14A5.68,5.68,0,0,1,222.73,66.38Zm-.09-14.95a5.88,5.88,0,0,1,6,4.55H216.6A5.86,5.86,0,0,1,222.64,51.43Z" transform="translate(-31.2 -36.6)"/><path d="M145.58,95.83l3.19-2.91c-2.69-3.43-5.55-6.75-8.57-9.92l.44-1.43-3.9-1.21a41,41,0,0,1-10.05,12.56l1.92,3.91a13.64,13.64,0,0,0,2.59-2.27v2.69h4.06V102H128v3.7h7.3v15.89l-8.35,1.21.83,4,19.33-2.91.44-3.9-8.19,1.21V105.7h7.53V102h-7.53V97.25h4.12V93.56H132.68a31,31,0,0,0,5.16-7.24A115.41,115.41,0,0,1,145.58,95.83Z" transform="translate(-31.2 -36.6)"/><path d="M140.58,117.9l3.84,1q1.32-4.37,2.8-9.5l-3.84-.8A83.84,83.84,0,0,1,140.58,117.9Z" transform="translate(-31.2 -36.6)"/><path d="M183.46,111.3h33.28l-12.68,3.9v7.55c0,1.32-.88,1.9-2.14,1.9-2.15,0-5.77-.26-8.9-.52l1.15,4.06c2.42.16,5,.21,7.8.21,4.45,0,6.81-2,6.81-5.6v-5.33l18.45-6.38v-3.54H183.46Z" transform="translate(-31.2 -36.6)"/><path d="M153.87,112.93h18.18a1.15,1.15,0,0,0,1.15-1.1V97a1.14,1.14,0,0,0-1.1-1.14H153.87V86.75h21.69V83H150.74a1.15,1.15,0,0,0-1.15,1.15V125.4a1.14,1.14,0,0,0,1.15,1.15h25.42V122.8H153.87Zm0-13.41h15v9.66h-15Z" transform="translate(-31.2 -36.6)"/><path d="M223.5,104.7a1.16,1.16,0,0,0,1.15-1.16V94.29a1.15,1.15,0,0,0-1.15-1.15H189.34a1.14,1.14,0,0,0-1.15,1.15v9.25a1.16,1.16,0,0,0,1.15,1.16Zm-30.59-8.08h27v4.54h-27Z" transform="translate(-31.2 -36.6)"/><polygon points="177.39 43.76 173.05 43.76 173.05 49.94 150.78 49.94 150.78 53.63 199.88 53.63 199.88 49.94 177.39 49.94 177.39 43.76"/><path d="M236.28,123.8l1.71,4.36A156.19,156.19,0,0,0,256.8,124l-2.16-3.77C249.72,121.46,243.64,122.68,236.28,123.8Z" transform="translate(-31.2 -36.6)"/><path d="M265.65,124c6.2,1.12,12.45,2.5,18.81,4.15l1.71-4.36c-6.19-1.38-12.39-2.55-18.58-3.56Z" transform="translate(-31.2 -36.6)"/><path d="M247.27,72.23h5V50.13H257V45.55h-4.67v-1.3c0-1.87,1.35-3.08,4.67-3.08V36.6c-2.94,0-4.33.14-6.5,1.44a7,7,0,0,0-3.18,6.21v1.3h-2.36v4.58h2.36Z" transform="translate(-31.2 -36.6)"/><path d="M263,70.26a11.43,11.43,0,0,0,7.61,2.65c3.37,0,6.5-1.25,7.85-3.57h.09v2.89h4.58V45.55h-5V59.86c0,5.82-2.84,8.47-7,8.47-3.71,0-6.65-1.73-6.65-8.33V45.55h-5V60C259.45,65.35,260.75,68.33,263,70.26Z" transform="translate(-31.2 -36.6)"/><path d="M291.62,57.69c0-5.34,2.85-8.28,7-8.28,6.64,0,6.64,6.26,6.64,8.33V72.23h5V56.44a13,13,0,0,0-1.69-6.84,10.81,10.81,0,0,0-9.43-4.77,9.48,9.48,0,0,0-7.81,3.57h-.09V45.55h-4.67V72.23h5Z" transform="translate(-31.2 -36.6)"/><path d="M326.78,72.91a11.28,11.28,0,0,0,9.44-4.48h.1v3.8h4.62V36.6h-5V48.83h-.1a11.51,11.51,0,0,0-9.05-4c-9.44,0-13.87,7.66-13.87,14.16C312.91,66,317.92,72.91,326.78,72.91Zm.29-23.5a9.11,9.11,0,0,1,9.25,9.53,9.2,9.2,0,1,1-18.4,0C317.92,54.75,320.91,49.41,327.07,49.41Z" transform="translate(-31.2 -36.6)"/><path d="M243.46,96.78a1.16,1.16,0,0,0-1.15,1.16v20.34a1.16,1.16,0,0,0,1.15,1.16h35.75a1.15,1.15,0,0,0,1.15-1.16V97.94a1.15,1.15,0,0,0-1.15-1.16Zm32.37,19.1h-29V113h29Zm0-6.44h-29v-2.93h29Zm0-6.44h-29v-2.71h29Z" transform="translate(-31.2 -36.6)"/><path d="M240.48,94.07h41.71a1.16,1.16,0,0,0,1.16-1.16V83.2a1.15,1.15,0,0,0-1.16-1.15H240.48a1.15,1.15,0,0,0-1.16,1.15v9.71A1.16,1.16,0,0,0,240.48,94.07Zm29.71-8.51h8.62v5h-8.62Zm-13.17,0h8.63v5H257Zm-13.16,0h8.63v5h-8.63Z" transform="translate(-31.2 -36.6)"/><path d="M332.19,118.59v-3.14a37.26,37.26,0,0,0,7.58,3.78l2.6-3.78c-5.47-1.76-9.51-4-12.11-6.65h11.23v-3.72h-9.07v-17H340V84.33h-7.57v-4.2h-4.54v4.2H305.64v-4.2h-4.53v4.2h-7.58v3.73h7.58v17H292v3.72h11.45c-2.71,2.5-6.86,4.79-12.34,6.86l2.6,3.78a49,49,0,0,0,7.14-3.78v2.93h13.38v4.15H293.53v3.77H340v-3.77H318.81v-4.15ZM305.64,88.06h22.24v3.29H305.64Zm0,6.86h22.24v3.3H305.64Zm0,6.86h22.24v3.3H305.64Zm8.63,9.15v3.94H301.72a33,33,0,0,0,7.35-6.07h15.6a33.63,33.63,0,0,0,6.69,6.07H318.81v-3.94Z" transform="translate(-31.2 -36.6)"/><path d="M388.76,115.33l-3.44-2.12-5.75,9.31h-5.45v-11.8H391.6v-4H374.12V100.5h12.34V97.63a55.13,55.13,0,0,0,7.74,3.94l2.6-3.94A55.09,55.09,0,0,1,375,82.42l.83-1.23-4.54-1.43q-8.37,10.36-24.39,17.66l2.38,4.15q4.31-2.08,8-4.15v3.08h12.34v6.23H352.11v4h17.48v11.8h-5.45l-5.74-9.31L355,115.33l4.44,7.19h-11v4h46.69v-4H384.32Zm-30.4-18.76A73.68,73.68,0,0,0,372,85.77a71,71,0,0,0,12.72,10.8Z" transform="translate(-31.2 -36.6)"/></svg>