<svg xmlns="http://www.w3.org/2000/svg" width="14" height="14" viewBox="0 0 14 14">
  <metadata><?xpacket begin="﻿" id="W5M0MpCehiHzreSzNTczkc9d"?>
<x:xmpmeta xmlns:x="adobe:ns:meta/" x:xmptk="Adobe XMP Core 5.6-c140 79.160451, 2017/05/06-01:08:21        ">
   <rdf:RDF xmlns:rdf="http://www.w3.org/1999/02/22-rdf-syntax-ns#">
      <rdf:Description rdf:about=""/>
   </rdf:RDF>
</x:xmpmeta>
                                                                                                    
                                                                                                    
                                                                                                    
                                                                                                    
                                                                                                    
                                                                                                    
                                                                                                    
                                                                                                    
                                                                                                    
                                                                                                    
                                                                                                    
                                                                                                    
                                                                                                    
                                                                                                    
                                                                                                    
                                                                                                    
                                                                                                    
                                                                                                    
                                                                                                    
                                                                                                    
                           
<?xpacket end="w"?></metadata>
<defs>
    <style>
      .cls-1 {
        fill: #9a9a99;
        fill-rule: evenodd;
      }
    </style>
  </defs>
  <path class="cls-1" d="M14,1.715L13.644,6.524a0.371,0.371,0,0,1-.1.231L6.556,13.891a0.353,0.353,0,0,1-.506,0l-0.693-.709a1.131,1.131,0,0,0,.111-0.1l6.983-7.136a1.106,1.106,0,0,0,.311-0.693l0.287-3.888,0.565-.044a0.352,0.352,0,0,1,.28.106A0.369,0.369,0,0,1,14,1.715ZM12.049,5.2a0.367,0.367,0,0,1-.1.231L4.962,12.567a0.352,0.352,0,0,1-.506,0L0.1,8.12A0.371,0.371,0,0,1,.1,7.6L7.088,0.468A0.353,0.353,0,0,1,7.314.362L12.02,0l0.027,0A0.354,0.354,0,0,1,12.3.105a0.371,0.371,0,0,1,.1.286Zm-1.8-3a0.944,0.944,0,0,0-1.357,0,1,1,0,0,0,0,1.386,0.945,0.945,0,0,0,1.357,0A1,1,0,0,0,10.247,2.2Z"/>
</svg>
