<svg width="81" height="106" viewBox="0 0 81 106" fill="none" xmlns="http://www.w3.org/2000/svg">
<g clip-path="url(#clip0_2066_3524)">
<path d="M26.3977 7.72279L26.021 0H55.0263L54.6496 7.72279H26.3977Z" fill="#1977FD"/>
<path d="M27.2923 26.0879L26.9626 19.3069H54.1316L53.802 26.0879H27.2923Z" fill="#1977FD"/>
<path d="M26.9627 19.3071L26.3977 7.7229H54.6496L54.1317 19.3071H26.9627Z" fill="white"/>
<path d="M25.2204 43.794L19.005 45.7717L0.5 9.4652L7.42172 6.87524L25.2204 43.794Z" fill="#1977FD"/>
<path d="M41.8419 38.5198L35.3911 40.5917L18.7695 2.68414L26.0209 0L41.8419 38.5198Z" fill="#1977FD"/>
<path d="M35.391 40.5917L25.2203 43.7938L7.42163 6.87511L18.7695 2.68408L35.391 40.5917Z" fill="white"/>
<path d="M45.5617 40.733L39.1108 38.661L54.979 0L62.2303 2.68414L45.5617 40.733Z" fill="#1977FD"/>
<path d="M61.9008 45.913L55.7324 43.9352L73.5782 6.87524L80.4999 9.4652L61.9008 45.913Z" fill="#1977FD"/>
<path d="M55.7325 43.9351L45.5618 40.7329L62.2304 2.68408L73.5782 6.87511L55.7325 43.9351Z" fill="white"/>
<g style="mix-blend-mode:multiply">
<path d="M36.7096 26.088L30.6826 0H26.021L36.7096 26.088Z" fill="#E0C7C7"/>
</g>
<g style="mix-blend-mode:multiply">
<path d="M44.2905 26.088L50.3647 0H55.0263L44.2905 26.088Z" fill="#E0C7C7"/>
</g>
<path d="M77.722 69.1756C77.722 89.4715 61.2417 105.953 40.9474 105.953C20.6531 105.953 4.17285 89.5185 4.17285 69.1756C4.17285 48.8326 20.6531 32.3511 40.9474 32.3511C61.2417 32.3511 77.722 48.8326 77.722 69.1756Z" fill="#F3F9FA"/>
<path d="M4.17285 69.1755C4.17285 89.4714 20.6531 105.953 40.9474 105.953C61.2417 105.953 77.722 89.4714 77.722 69.1755H4.17285Z" fill="#C9CFD1"/>
<path d="M40.9472 36.6833C23.0543 36.6833 8.45752 51.2813 8.45752 69.1756C8.45752 87.0698 23.0543 101.668 40.9472 101.668C58.8401 101.668 73.4369 87.0698 73.4369 69.1756C73.4369 51.2813 58.8401 36.6833 40.9472 36.6833ZM40.9472 98.8424C24.6553 98.8424 11.3298 85.5159 11.3298 69.2227C11.3298 52.9295 24.6553 39.5558 40.9472 39.5558C57.2392 39.5558 70.5647 52.8824 70.5647 69.2227C70.5647 85.563 57.2392 98.8424 40.9472 98.8424Z" fill="#A0A5A6"/>
<path d="M40.9473 98.8422C24.6553 98.8422 11.3298 85.5157 11.3298 69.2225C11.3298 52.9293 24.6553 39.5557 40.9473 39.5557C57.2392 39.5557 70.5647 52.8822 70.5647 69.2225C70.5647 85.5628 57.2392 98.8422 40.9473 98.8422Z" fill="#C9CFD1"/>
<g filter="url(#filter0_d_2066_3524)">
<path d="M49.5 75.6049V81.2236H31.5V77.196L41.5442 66.0082C42.5387 64.964 43.0856 64.2181 43.0856 62.8756V62.5275C43.0856 60.2899 42.0414 59.3452 40.6989 59.3452H40.3508C39.0083 59.3452 37.9641 60.2899 37.9641 63.2236H31.5V62.5772C31.5 56.6601 34.384 53.7761 40.5 53.7761C47.3619 53.7761 49.5 58.0524 49.5 61.3341V62.0303C49.5 65.312 48.4061 66.9032 46.4669 68.9916L40.5 75.6049H42.9365H49.5Z" fill="white"/>
</g>
<path d="M50.3647 91.7315C50.3647 91.7315 49.7997 91.9199 49.3759 92.0611C49.7997 91.8728 50.3176 91.5902 50.3176 91.5902C54.0375 89.377 52.154 87.1638 52.1069 87.0696C49.423 88.7648 49.423 91.0252 49.4701 91.8257C49.4701 91.8728 49.2817 92.0141 49.1876 92.0141C48.9992 92.1082 48.905 92.1553 48.905 92.2024C48.905 92.2024 49.0463 92.2024 49.2346 92.1553C49.2817 92.1553 49.5172 92.1082 49.5642 92.1553C49.8468 92.7204 51.4006 95.0278 55.2617 92.6262C55.2617 92.532 54.4142 90.1304 50.3647 91.7315Z" fill="white"/>
<path d="M54.1315 89.6125C54.1315 89.6125 53.6606 89.8951 53.2839 90.0834C53.6606 89.848 54.0844 89.5183 54.0844 89.5183C57.2863 86.74 54.8849 84.9035 55.0261 84.9506C52.766 86.9755 53.1897 89.1416 53.3781 89.848C53.3781 89.848 53.1897 90.0363 53.1427 90.0834C53.0014 90.2247 52.9543 90.2718 52.9072 90.3189C52.9072 90.3189 53.0485 90.3189 53.1897 90.2247C53.2368 90.2247 53.4723 90.0834 53.4723 90.1305C53.849 90.6014 55.6382 92.5321 58.8401 89.6596C58.8401 89.5654 57.6159 87.4935 54.0844 89.6125H54.1315Z" fill="white"/>
<path d="M57.3806 87.0226C57.3806 87.0226 56.9568 87.3522 56.6743 87.5876C56.9568 87.3051 57.2864 86.9284 57.2864 86.8813C59.8291 83.7733 57.2864 82.4077 57.3806 82.4077C55.5442 84.7151 56.3447 86.6458 56.6743 87.3051C56.6743 87.3051 56.5331 87.4935 56.486 87.5876C56.3447 87.7289 56.2976 87.776 56.2976 87.8231C56.2976 87.8231 56.3918 87.776 56.5331 87.6818C56.5801 87.6818 56.7685 87.5405 56.8156 87.5876C57.2394 87.9644 59.2641 89.5183 61.8068 86.2691C61.8068 86.1749 60.2529 84.3855 57.3335 86.9755L57.3806 87.0226Z" fill="white"/>
<path d="M60.0173 83.9617C60.0173 83.9617 59.6877 84.3384 59.4052 84.621C59.6406 84.2913 59.9231 83.8675 59.9231 83.8675C61.8537 80.477 59.2639 79.6294 59.311 79.6294C57.8984 82.1723 58.9814 83.8204 59.4052 84.3855C59.4052 84.3855 59.311 84.621 59.311 84.668C59.2168 84.8093 59.1697 84.9035 59.1697 84.9035C59.1697 84.9035 59.2639 84.8564 59.4052 84.7151C59.4052 84.7151 59.5935 84.5268 59.6406 84.5739C60.1115 84.8564 62.2304 85.9866 64.1609 82.5019C64.1609 82.4077 62.4187 80.995 60.0173 83.9146V83.9617Z" fill="white"/>
<path d="M62.0422 80.5713C62.0422 80.5713 61.8068 80.9951 61.5714 81.3247C61.7597 80.9951 61.9481 80.5242 61.9481 80.5242C63.3136 76.9924 60.6767 76.5686 60.7238 76.5686C59.735 79.2057 61.0534 80.6184 61.5243 81.0893C61.5243 81.0893 61.5243 81.3247 61.4772 81.3718C61.4301 81.5602 61.383 81.6073 61.383 81.6543C61.383 81.6543 61.4772 81.6072 61.5714 81.466L61.7597 81.2776C62.2777 81.466 64.4436 82.1723 65.7621 78.5464C65.715 78.4993 63.7844 77.3691 61.9951 80.5713H62.0422Z" fill="white"/>
<path d="M63.5488 76.9453C63.5488 76.9453 63.3604 77.4162 63.2192 77.6988C63.3133 77.3692 63.4075 76.8982 63.4546 76.8982C64.2551 73.3194 61.6653 73.3665 61.7595 73.3665C61.1944 76.0506 62.6541 77.1808 63.1721 77.5575C63.1721 77.5575 63.1721 77.793 63.1721 77.8401C63.1721 77.9813 63.1721 78.0755 63.1721 78.1226C63.1721 78.1226 63.2192 78.0284 63.3133 77.9342C63.3133 77.9342 63.4546 77.6988 63.5017 77.6988C64.0196 77.793 66.1856 78.0755 66.939 74.4496C66.8919 74.4496 64.9143 73.649 63.6429 76.9924L63.5488 76.9453Z" fill="white"/>
<path d="M64.1611 74.3082C64.1611 74.3082 64.1611 74.214 64.2553 74.0727C64.2553 74.0256 64.3494 73.8373 64.3965 73.8373C64.9145 73.8373 67.0334 73.7902 67.2688 70.1642C67.2688 70.1642 65.197 69.7404 64.4436 73.1309C64.4436 73.1309 64.3494 73.6018 64.2082 73.9314C64.2082 73.6018 64.3023 73.1309 64.3023 73.1309C64.5378 69.5991 62.0893 70.023 62.1835 70.023C61.9951 72.7071 63.549 73.5076 64.114 73.7902C64.114 73.7902 64.114 74.0256 64.114 74.0727V74.3082H64.1611Z" fill="white"/>
<path d="M64.8202 69.2695C64.8202 69.2695 64.7731 69.7404 64.726 70.07C64.726 69.7404 64.726 69.2695 64.726 69.2695C64.4435 65.879 62.1834 66.6795 62.2305 66.6324C62.4188 69.2224 64.0197 69.7404 64.5848 69.9288C64.5848 69.9288 64.5848 70.1171 64.5848 70.1642C64.5848 70.3055 64.5848 70.3997 64.5848 70.3997C64.5848 70.3997 64.5848 70.3055 64.6319 70.1642C64.6319 70.1171 64.679 69.9288 64.726 69.9288C65.1969 69.8346 67.2216 69.4108 66.9391 65.9732C66.9391 65.9732 64.9144 65.9261 64.679 69.2695H64.8202Z" fill="white"/>
<path d="M64.5847 65.408C64.5847 65.408 64.5847 65.8789 64.5847 66.2086C64.5847 65.8789 64.4435 65.4551 64.4435 65.4551C63.7372 62.253 61.6654 63.3832 61.7125 63.3361C62.2304 65.8319 63.8784 66.0202 64.4435 66.1144C64.4435 66.1144 64.5377 66.3028 64.5377 66.3498C64.5377 66.4911 64.5847 66.5382 64.5847 66.5853C64.5847 66.5853 64.5847 66.4911 64.5847 66.3498V66.1144C65.0556 65.926 66.892 65.2197 66.1857 61.9705C66.0915 61.9705 64.2551 62.2059 64.4435 65.4551L64.5847 65.408Z" fill="white"/>
<path d="M63.8784 61.688C63.8784 61.688 63.9726 62.1118 64.0197 62.4414C63.9255 62.1589 63.7843 61.7351 63.7843 61.7351C62.6542 58.7684 60.8178 60.1811 60.8649 60.134C61.7595 62.4414 63.3134 62.3472 63.8784 62.3472L63.9726 62.5356C64.0197 62.6769 64.0668 62.724 64.0668 62.7711C64.0668 62.7711 64.0668 62.6769 64.0668 62.5356V62.3002C64.4906 62.0647 66.1386 61.0758 65.0085 58.1091C64.9143 58.1091 63.2192 58.6271 63.8784 61.7351V61.688Z" fill="white"/>
<path d="M59.4053 57.1202C60.6295 59.1922 62.0892 58.8625 62.6072 58.7684L62.7484 58.9096C62.8426 59.0509 62.8426 59.098 62.8897 59.098C62.8897 59.098 62.8897 59.0038 62.8897 58.8625C62.8897 58.8625 62.8897 58.6742 62.8897 58.6271C63.2664 58.3446 64.679 57.1202 63.1251 54.4832C63.078 54.4832 61.43 55.2837 62.6072 58.1091C62.6072 58.1091 62.7484 58.4858 62.8426 58.7684C62.7013 58.4858 62.513 58.1562 62.513 58.1562C60.9591 55.5191 59.4053 57.1202 59.4524 57.0731L59.4053 57.1202Z" fill="white"/>
<path d="M61.1004 55.5663C61.1004 55.5663 60.6766 55.0483 60.6766 55.0012C58.7461 52.7409 57.5219 54.4832 57.5689 54.4361C59.1228 56.2256 60.4883 55.7076 60.9121 55.5192C60.9121 55.5192 61.0533 55.6134 61.1004 55.6605C61.1946 55.7547 61.2417 55.8018 61.2417 55.8018C61.2417 55.8018 61.2417 55.7076 61.1946 55.6134C61.1946 55.6134 61.1004 55.425 61.1475 55.3779C61.43 55.0483 62.6543 53.6827 60.6766 51.4224C60.6296 51.4224 59.217 52.4113 60.7708 54.9541C60.7708 54.9541 60.9592 55.3308 61.1004 55.5663Z" fill="white"/>
<path d="M55.2146 52.0817C57.0509 53.5885 58.2752 52.8822 58.699 52.5996C58.699 52.5996 58.8402 52.6938 58.8873 52.6938C58.9815 52.788 59.0286 52.788 59.0757 52.788C59.0757 52.788 59.0757 52.6938 58.9815 52.5996C58.9815 52.5996 58.8402 52.4113 58.8873 52.4113C59.0757 52.0346 60.0645 50.5748 57.7572 48.6912C57.7102 48.6912 56.4859 49.8684 58.4165 52.0346C58.4165 52.0346 58.6519 52.3171 58.8402 52.5526C58.6519 52.3642 58.3694 52.0817 58.3223 52.0817C56.0621 50.198 55.1675 52.0817 55.1675 51.9875L55.2146 52.0817Z" fill="white"/>
<path d="M52.3894 50.1509C54.4612 51.2811 55.5442 50.4335 55.9209 50.1509C55.9209 50.1509 56.0621 50.198 56.1092 50.2451C56.2034 50.2922 56.2976 50.3393 56.2976 50.3393C56.2976 50.3393 56.2976 50.2922 56.1563 50.198C56.1563 50.198 56.015 50.0568 56.015 50.0097C56.1563 49.6329 56.8155 48.079 54.2257 46.6663C54.1787 46.6663 53.1898 47.9848 55.4971 49.7271C55.4971 49.7271 55.7796 49.9626 56.015 50.1509C55.7796 50.0097 55.45 49.7742 55.45 49.7742C52.9073 48.3144 52.3423 50.198 52.3423 50.1509H52.3894Z" fill="white"/>
<path d="M52.6718 48.1731H52.8602C53.0014 48.1731 53.0485 48.2202 53.0956 48.2202C53.0956 48.2202 53.0485 48.1731 52.9073 48.079C52.9073 48.079 52.7189 47.9377 52.766 47.9377C52.8131 47.561 53.2369 46.007 50.3175 45.0652C50.3175 45.0652 49.5641 46.4308 52.201 47.7493C52.201 47.7493 52.5306 47.9377 52.8131 48.079C52.5306 47.9377 52.201 47.8435 52.1539 47.7964C49.2816 46.8546 49.0933 48.644 49.0933 48.644C51.4476 49.4446 52.2951 48.4557 52.6248 48.126L52.6718 48.1731Z" fill="white"/>
<path d="M32.9897 92.2024C32.9897 92.2024 32.8956 92.1082 32.7072 92.0141C32.7072 92.0141 32.4247 91.8728 32.4247 91.8257C32.4718 91.0252 32.5189 88.7648 29.7879 87.0696C29.7879 87.1638 27.8573 89.377 31.5771 91.5902C31.5771 91.5902 32.0951 91.8728 32.5189 92.0611C32.0951 91.9199 31.5301 91.7315 31.5301 91.7315C27.4806 90.1304 26.6801 92.532 26.6331 92.6262C30.4942 95.0278 32.048 92.7204 32.3305 92.1553C32.3305 92.1553 32.613 92.1553 32.6601 92.1553C32.8485 92.2024 32.9426 92.2024 32.9897 92.2024Z" fill="white"/>
<path d="M28.3754 90.1775C28.3754 90.1775 28.6108 90.2246 28.6579 90.2717C28.8462 90.3188 28.9404 90.3658 28.9404 90.3658C28.9404 90.3658 28.8462 90.2717 28.705 90.1304C28.705 90.1304 28.4695 89.942 28.4695 89.8949C28.6579 89.1415 29.1288 87.0224 26.8215 84.9976C26.9157 84.9976 24.5143 86.787 27.7162 89.5653C27.7162 89.5653 28.1399 89.8949 28.5166 90.1304C28.1399 89.942 27.6691 89.6595 27.6691 89.6595C24.1376 87.5404 22.9604 89.6595 22.9133 89.7066C26.1152 92.5791 27.9045 90.6484 28.3283 90.1775H28.3754Z" fill="white"/>
<path d="M25.0321 87.6348L25.2676 87.7289C25.4088 87.8231 25.503 87.8702 25.503 87.8702C25.503 87.8702 25.4559 87.776 25.3146 87.6348C25.3146 87.5877 25.1263 87.3993 25.1263 87.3522C25.4559 86.6929 26.2564 84.7623 24.42 82.4548C24.5142 82.4548 21.9715 83.7734 24.5142 86.9284C24.5142 86.9284 24.8909 87.3522 25.1734 87.6348C24.8438 87.3993 24.4671 87.0697 24.42 87.0697C21.5006 84.4797 19.9939 86.2691 19.9468 86.3633C22.5365 89.6125 24.5142 88.0586 24.9379 87.6818L25.0321 87.6348Z" fill="white"/>
<path d="M22.2539 84.621C22.2539 84.621 22.4423 84.7152 22.4894 84.7623C22.6306 84.8564 22.6777 84.9506 22.7248 84.9506C22.7248 84.9506 22.7248 84.8564 22.5836 84.7152C22.5836 84.6681 22.4423 84.4797 22.4894 84.4326C22.9132 83.8675 23.9491 82.1723 22.5836 79.6765C22.6777 79.6765 20.088 80.5241 21.9714 83.9146C21.9714 83.9146 22.254 84.3384 22.4894 84.6681C22.254 84.3855 21.8773 84.0088 21.8773 84.0088C19.4758 81.0892 17.7807 82.5019 17.7336 82.5961C19.6642 86.0808 21.7831 84.9506 22.2539 84.6681V84.621Z" fill="white"/>
<path d="M20.088 81.2305C20.088 81.2305 20.2763 81.3718 20.2763 81.4189C20.3705 81.5601 20.4647 81.6072 20.4647 81.6072C20.4647 81.6072 20.4647 81.513 20.3705 81.3247C20.3705 81.2776 20.2763 81.0892 20.2763 81.0421C20.7472 80.5712 22.0656 79.1585 21.0768 76.5215C21.171 76.5215 18.487 76.9453 19.8526 80.4771C19.8526 80.4771 20.0409 80.948 20.2292 81.2776C20.0409 80.948 19.7584 80.5712 19.7584 80.5242C17.9691 77.2749 16.0385 78.4522 15.9915 78.4993C17.357 82.0781 19.5229 81.3718 20.0409 81.2305H20.088Z" fill="white"/>
<path d="M18.4872 77.6045C18.4872 77.6045 18.6284 77.7929 18.6284 77.84C18.7226 77.9812 18.7697 78.0283 18.7697 78.0283C18.7697 78.0283 18.7697 77.9341 18.7697 77.7458C18.7697 77.6987 18.7226 77.5103 18.7697 77.4632C19.2876 77.0865 20.7473 76.0034 20.1823 73.2722C20.2294 73.2722 17.6867 73.2722 18.4872 76.804C18.4872 76.804 18.5813 77.2749 18.7226 77.6045C18.5813 77.2749 18.393 76.8511 18.393 76.8511C17.1216 73.5077 15.144 74.2611 15.0969 74.3082C15.8974 77.9341 18.0163 77.6045 18.5813 77.5574L18.4872 77.6045Z" fill="white"/>
<path d="M17.4983 73.8373C17.4983 73.8373 17.5924 74.0256 17.6395 74.0727C17.6395 74.214 17.7337 74.2611 17.7337 74.3082C17.7337 74.3082 17.7337 74.214 17.7337 74.0727C17.7337 74.0256 17.7337 73.8373 17.7337 73.7902C18.2987 73.5076 19.8526 72.7071 19.6642 70.023C19.7113 70.023 17.2628 69.5991 17.5453 73.1309C17.5453 73.1309 17.5453 73.6018 17.6395 73.9314C17.5453 73.6018 17.4512 73.178 17.4512 73.1309C16.7449 69.7404 14.6731 70.1171 14.626 70.1642C14.8614 73.7431 16.9803 73.7902 17.4983 73.8373Z" fill="white"/>
<path d="M17.0273 69.9288C17.0273 69.9288 17.1215 70.1171 17.1215 70.1642C17.1215 70.3055 17.1686 70.3997 17.1686 70.3997C17.1686 70.3997 17.1686 70.3055 17.1686 70.1642C17.1686 70.1171 17.1686 69.9288 17.2157 69.9288C17.7807 69.7404 19.3817 69.2695 19.57 66.6324C19.6171 66.6324 17.404 65.879 17.1215 69.2695C17.1215 69.2695 17.1215 69.7404 17.1215 70.07C17.1215 69.7404 17.0273 69.2695 17.0273 69.2695C16.7919 65.9261 14.8143 65.9732 14.7672 65.9732C14.5318 69.4108 16.5094 69.8346 16.9803 69.9288H17.0273Z" fill="white"/>
<path d="M17.1686 66.0203C17.1686 66.0203 17.1686 66.2087 17.1686 66.2558C17.1686 66.397 17.1686 66.4912 17.1686 66.4912C17.1686 66.4912 17.1686 66.397 17.2156 66.2558C17.2156 66.2558 17.2627 66.0203 17.3098 66.0203C17.8748 65.9261 19.4758 65.7378 20.0408 63.242C20.0408 63.242 18.0161 62.1589 17.3098 65.3611C17.3098 65.3611 17.2156 65.7849 17.1686 66.1145C17.1686 65.7849 17.1686 65.3611 17.1686 65.314C17.404 62.0648 15.5205 61.7822 15.4734 61.8293C14.7671 65.0785 16.6035 65.7849 17.0273 65.9732L17.1686 66.0203Z" fill="white"/>
<path d="M17.8279 62.253C17.8279 62.253 17.8279 62.4414 17.8279 62.4885C17.8279 62.6297 17.8279 62.6768 17.8279 62.7239C17.8279 62.7239 17.8279 62.6297 17.9221 62.4885C17.9221 62.4885 18.0162 62.3001 18.0633 62.3001C18.6284 62.3001 20.1822 62.3943 21.0769 60.0869C21.0769 60.0869 19.2876 58.7212 18.1575 61.6879C18.1575 61.6879 18.0162 62.0647 17.9221 62.3943C17.9691 62.0647 18.0633 61.6408 18.0633 61.6408C18.7225 58.58 16.9803 58.0149 16.9332 58.0149C15.7561 60.9816 17.4512 61.9705 17.8279 62.2059V62.253Z" fill="white"/>
<path d="M19.052 58.6742C19.052 58.6742 19.052 58.8626 19.052 58.9097C19.052 59.051 19.052 59.0981 19.052 59.1451C19.052 59.1451 19.0991 59.0981 19.1933 58.9568C19.1933 58.9568 19.2874 58.7684 19.3345 58.8155C19.8525 58.9097 21.3122 59.2393 22.5364 57.1674C22.5364 57.1674 21.0296 55.6134 19.5229 58.2504C19.5229 58.2504 19.3345 58.6271 19.1933 58.8626C19.2874 58.5801 19.4287 58.2033 19.4287 58.2033C20.6059 55.3779 18.9578 54.5774 18.9107 54.5774C17.3569 57.2144 18.7695 58.4388 19.1462 58.7213L19.052 58.6742Z" fill="white"/>
<path d="M20.7001 55.6134L20.6059 55.8018C20.6059 55.8018 20.7001 55.7547 20.7472 55.6605L20.8885 55.5192C21.3593 55.7076 22.7248 56.2256 24.2787 54.4361C24.2787 54.4361 23.0544 52.7409 21.171 55.0012C21.171 55.0012 20.9355 55.3308 20.7472 55.5663C20.8885 55.3308 21.0768 54.9541 21.0768 54.9541C22.5836 52.4113 21.2181 51.4224 21.171 51.4224C19.2404 53.6827 20.4647 55.0483 20.7472 55.3779C20.7472 55.3779 20.7472 55.5663 20.7001 55.6134Z" fill="white"/>
<path d="M22.9602 52.6468C22.9602 52.6468 22.8661 52.7881 22.8661 52.8352C22.8661 52.8352 22.9131 52.8352 23.0544 52.741C23.0544 52.741 23.1957 52.5997 23.2427 52.6468C23.6665 52.8823 24.8908 53.5886 26.7271 52.1288C26.7271 52.1288 25.8325 50.3394 23.5723 52.223C23.5723 52.223 23.2898 52.4585 23.0544 52.6939C23.2427 52.4585 23.4782 52.1759 23.4782 52.1759C25.4087 50.0098 24.2316 48.8796 24.1374 48.8325C21.8301 50.7161 22.819 52.1759 23.0073 52.5526L22.9131 52.741L22.9602 52.6468Z" fill="white"/>
<path d="M25.55 50.2922C25.55 50.2922 25.6442 50.2922 25.7384 50.198C25.7384 50.198 25.8796 50.1038 25.9267 50.1038C26.3505 50.3864 27.3864 51.2811 29.4582 50.1038C29.4582 50.1509 28.9402 48.2673 26.3505 49.7271C26.3505 49.7271 26.0209 49.9155 25.7854 50.1038C26.0209 49.9155 26.3034 49.68 26.3034 49.68C28.6106 47.9377 27.6689 46.6662 27.5747 46.6191C24.985 48.0318 25.6442 49.5858 25.7854 49.9625C25.7854 49.9625 25.6913 50.1038 25.6442 50.1509C25.55 50.2451 25.5029 50.2922 25.5029 50.2922H25.55Z" fill="white"/>
<path d="M28.799 48.2674C28.799 48.2674 28.8932 48.2674 28.9874 48.2203C28.9874 48.2203 29.1757 48.1732 29.1757 48.2203C29.5053 48.5499 30.3529 49.5388 32.7072 48.7383C32.7072 48.7383 32.5189 46.9489 29.6466 47.8907C29.6466 47.8907 29.2699 48.0319 29.0345 48.1732C29.2699 48.0319 29.6466 47.8436 29.6466 47.8436C32.2834 46.525 31.6242 45.2065 31.5301 45.1594C28.6578 46.1012 29.0345 47.6552 29.0816 48.0319L28.9403 48.1732C28.8461 48.2674 28.799 48.2674 28.752 48.3145L28.799 48.2674Z" fill="white"/>
<path d="M40.9475 46.007L42.0305 46.5721L41.8421 45.3006L42.6897 44.4059L41.5125 44.2176L40.9475 43.0874L40.3825 44.2176L39.1582 44.4059L40.0528 45.3006L39.8645 46.5721L40.9475 46.007Z" fill="#F3F9FA"/>
<path d="M36.1446 46.5249L36.9921 46.8074L36.7096 45.9598L37.1805 45.2064L36.3329 45.2534L35.815 44.5L35.5795 45.3947L34.7791 45.6773L35.4853 46.1952V47.0429L36.1446 46.5249Z" fill="#F3F9FA"/>
<path d="M45.7502 46.5249L44.9027 46.8074L45.1852 45.9598L44.6672 45.2064L45.5619 45.2534L46.0798 44.5L46.3153 45.3947L47.1157 45.6773L46.4094 46.1952V47.0429L45.7502 46.5249Z" fill="#F3F9FA"/>
<path d="M40.9475 92.7677L42.0305 92.1555L41.8421 93.427L42.6897 94.3217L41.5125 94.51L40.9475 95.6873L40.3825 94.51L39.1582 94.3217L40.0528 93.427L39.8645 92.1555L40.9475 92.7677Z" fill="#F3F9FA"/>
<path d="M36.1446 92.2497L36.9921 91.9671L36.7096 92.8147L37.1805 93.5211H36.3329L35.815 94.2274L35.5795 93.3798L34.7791 93.0973L35.4853 92.5793V91.6846L36.1446 92.2497Z" fill="#F3F9FA"/>
<path d="M45.7502 92.2497L44.9027 91.9671L45.1852 92.8147L44.6672 93.5211H45.5619L46.0798 94.2274L46.3153 93.3798L47.1157 93.0973L46.4094 92.5793V91.6846L45.7502 92.2497Z" fill="#F3F9FA"/>
</g>
<defs>
<filter id="filter0_d_2066_3524" x="28.5" y="50.7761" width="24" height="33.4475" filterUnits="userSpaceOnUse" color-interpolation-filters="sRGB">
<feFlood flood-opacity="0" result="BackgroundImageFix"/>
<feColorMatrix in="SourceAlpha" type="matrix" values="0 0 0 0 0 0 0 0 0 0 0 0 0 0 0 0 0 0 127 0" result="hardAlpha"/>
<feOffset/>
<feGaussianBlur stdDeviation="1.5"/>
<feComposite in2="hardAlpha" operator="out"/>
<feColorMatrix type="matrix" values="0 0 0 0 0 0 0 0 0 0 0 0 0 0 0 0 0 0 0.35 0"/>
<feBlend mode="normal" in2="BackgroundImageFix" result="effect1_dropShadow_2066_3524"/>
<feBlend mode="normal" in="SourceGraphic" in2="effect1_dropShadow_2066_3524" result="shape"/>
</filter>
<clipPath id="clip0_2066_3524">
<rect width="80" height="106" fill="white" transform="translate(0.5)"/>
</clipPath>
</defs>
</svg>
