<svg xmlns="http://www.w3.org/2000/svg" viewBox="0 0 320.67 320.11"><defs><style>.cls-1{fill:#06c755;}.cls-2{fill:#fff;}</style></defs><g id="圖層_2" data-name="圖層 2"><g id="圖層_2-2" data-name="圖層 2"><rect class="cls-1" width="320.44" height="320"/></g><g id="LINE_LOGO" data-name="LINE LOGO"><rect class="cls-1" x="0.67" y="0.11" width="320" height="320" rx="72.14"/><path class="cls-2" d="M267.32,145c0-47.74-47.86-86.58-106.69-86.58S54,97.3,54,145c0,42.79,38,78.64,89.22,85.41,3.47.75,8.2,2.29,9.4,5.26,1.08,2.7.7,6.93.35,9.65,0,0-1.26,7.53-1.53,9.13-.46,2.7-2.14,10.55,9.24,5.76s61.44-36.18,83.83-61.94h0C259.91,181.35,267.32,164.14,267.32,145Z"/><path class="cls-1" d="M231.83,172.6h-30a2,2,0,0,1-2-2v0h0V124.05h0v0a2,2,0,0,1,2-2h30a2,2,0,0,1,2,2v7.57a2,2,0,0,1-2,2H211.46v7.85h20.37a2,2,0,0,1,2,2v7.57a2,2,0,0,1-2,2H211.46V161h20.37a2,2,0,0,1,2,2v7.56A2,2,0,0,1,231.83,172.6Z"/><path class="cls-1" d="M121,172.6a2,2,0,0,0,2-2V163a2,2,0,0,0-2-2H100.59V124a2,2,0,0,0-2-2H91a2,2,0,0,0-2,2v46.53h0v0a2,2,0,0,0,2,2h30Z"/><rect class="cls-1" x="129.4" y="121.97" width="11.64" height="50.64" rx="2.04"/><path class="cls-1" d="M190.51,122h-7.57a2,2,0,0,0-2,2v27.66L159.6,122.89a1.66,1.66,0,0,0-.16-.21v0l-.13-.12,0,0-.11-.09a.1.1,0,0,0-.05,0l-.11-.08-.06,0-.11-.07-.07,0-.12,0-.06,0-.13,0-.07,0-.12,0h-.09l-.11,0h-7.7a2,2,0,0,0-2,2v46.56a2,2,0,0,0,2,2h7.57a2,2,0,0,0,2-2V142.92l21.33,28.8a2.18,2.18,0,0,0,.53.52h0l.13.08.06,0,.1,0,.1,0,.06,0,.14,0h0a1.88,1.88,0,0,0,.53.07h7.53a2,2,0,0,0,2-2V124A2,2,0,0,0,190.51,122Z"/></g></g></svg>