<svg id="圖層_1" data-name="圖層 1" xmlns="http://www.w3.org/2000/svg" viewBox="0 0 325 154.81"><defs><style>.cls-1{fill:#fff;}.cls-2{fill:#d71718;}</style></defs><title>logo</title><rect class="cls-1" width="325" height="154.81"/><path class="cls-2" d="M321.49,261.15h35.2q3.33,0,3.33,3.22l-0.87,5.78a0.57,0.57,0,0,0,.67.61h3.27q2.81,0,2.81,4.3a44.85,44.85,0,0,1-.41,7.47,6.6,6.6,0,0,1-1.89,3.79q-1.43,1.23-4.66,1.23a23.74,23.74,0,0,1-6.14-1.23,2.17,2.17,0,0,1-1.18-1.89,2.11,2.11,0,0,1,2.25-2.25,18.83,18.83,0,0,0,4.86,1.28,4,4,0,0,0,2-.41,2.09,2.09,0,0,0,.77-1.59,11.74,11.74,0,0,0,.31-2.92q0-3.89-1-3.89h-3.48q-2.25,0-2.25-2.46l0.82-6.34c0-.58-0.43-0.87-1.28-0.87H332.34a8.81,8.81,0,0,1-.1,1.43,19.29,19.29,0,0,1-.51,2.87h17.65q3.43,0,3.43,2.71a4.81,4.81,0,0,1-1.18,2.4,35.87,35.87,0,0,1-6,5.78c-0.24.17-.48,0.36-0.72,0.56q2.3,1.44,5.07,3.48a3.74,3.74,0,0,1,.2,1.28q0,1.84-2,1.84a2.72,2.72,0,0,1-1.59-.46q-3.22-2.15-5.68-3.63l-2,1a56.13,56.13,0,0,1-9.57,3.43,11.84,11.84,0,0,1-2.4.51,2.19,2.19,0,0,1-2.51-2.46,1.83,1.83,0,0,1,1.84-1.84,58.34,58.34,0,0,0,7.21-1.84q1.69-.56,3.22-1.18-2-1.07-4.3-2.1a2.56,2.56,0,0,1-.77-1.64,1.81,1.81,0,0,1,2-2,4.88,4.88,0,0,1,1.59.36q3.33,1.64,6,3.22a25.6,25.6,0,0,0,5.53-4.4,3.16,3.16,0,0,0,.77-1.07,0.34,0.34,0,0,0-.41-0.36H330.7q-0.26.77-.56,1.54a24.13,24.13,0,0,1-3.27,5.94,29.75,29.75,0,0,1-5.37,5.42,4,4,0,0,1-1.18.2,2.44,2.44,0,0,1-1.64-.61,2.08,2.08,0,0,1-.61-1.43,2.4,2.4,0,0,1,.61-1.69,31.87,31.87,0,0,0,4.71-4.55,19.74,19.74,0,0,0,2.92-5.17,29.11,29.11,0,0,0,1.89-7.47h-6.7q-1.84,0-1.84-2A1.61,1.61,0,0,1,321.49,261.15ZM326,289.8h34.44q3.68,0,3.68,3.43v9.26h2a1.79,1.79,0,0,1,2,2,1.81,1.81,0,0,1-2,2h-46.1a1.79,1.79,0,0,1-2-2,1.76,1.76,0,0,1,2-2h2.3v-9.26Q322.36,289.81,326,289.8Zm0.41,12.69H335v-8.85h-7.32a1.13,1.13,0,0,0-1.28,1.28v7.57Zm12.48,0h8.65v-8.85h-8.65v8.85Zm12.54,0H360v-7.57a1.13,1.13,0,0,0-1.28-1.28h-7.32v8.85Z" transform="translate(-258.95 -220.63)"/><path class="cls-2" d="M373.53,283.87h3.89q3.63,0,3.63,3.48v8.8a5.37,5.37,0,0,0,2.76,4.55q3.33,2.2,9,2.2h25.28a2,2,0,0,1,0,4.09H394.4a26.87,26.87,0,0,1-8-1.13,15.91,15.91,0,0,1-6-3.12l-0.72-.51a0.84,0.84,0,0,0-.56.51,16,16,0,0,1-4.09,3.84,4.1,4.1,0,0,1-1.69.82,2,2,0,0,1-2.25-2,1.81,1.81,0,0,1,1.38-1.84,12.88,12.88,0,0,0,3.38-2.56q1.18-1.33,1.18-4.81v-7.42a0.91,0.91,0,0,0-1.07-1h-2.4a1.83,1.83,0,0,1-2.1-2Q371.43,283.87,373.53,283.87Zm0.15-12.33a3.58,3.58,0,0,1,1.48.46q1.38,0.82,2.56,1.64A31.38,31.38,0,0,1,381,276.3a2.82,2.82,0,0,1,.26,1.18,1.74,1.74,0,0,1-2,1.89,3.06,3.06,0,0,1-1.64-.41q-1.79-1.53-3-2.4a18.87,18.87,0,0,0-2.35-1.48,2.26,2.26,0,0,1-.61-1.48A1.81,1.81,0,0,1,373.68,271.54Zm0.41-10.85a3.57,3.57,0,0,1,1.48.46q1.43,0.92,2.56,1.79a29.68,29.68,0,0,1,3.38,2.92,3.42,3.42,0,0,1,.2,1.18q0,1.84-2,1.84a3.4,3.4,0,0,1-1.64-.36,33.26,33.26,0,0,0-3-2.66q-1.07-.82-2.3-1.64a2.17,2.17,0,0,1-.67-1.48A1.81,1.81,0,0,1,374.09,260.69Zm41.39,2.25a1.63,1.63,0,0,1,1.84,1.84q0,2-1.84,2H402.74v3.74h14.79a1.63,1.63,0,0,1,1.84,1.84q0,2-1.84,2h-6.91l-1.43,5.12h7.11a1.61,1.61,0,0,1,1.79,1.84q0,2-1.79,2H402.74v2.87h11.51a1.84,1.84,0,0,1,0,3.68H402.74v3.22h14.38a1.65,1.65,0,0,1,1.84,1.89q0,2-1.84,2H402.74V300a2,2,0,0,1-4.09,0v-2.81h-13.1q-1.79,0-1.79-2a1.63,1.63,0,0,1,1.79-1.89h13.1V290H388.06a1.84,1.84,0,0,1,0-3.68h10.59v-2.87H385.81q-1.84,0-1.84-2a1.63,1.63,0,0,1,1.84-1.84h6.65l-1.38-5.12h-5.94q-1.84,0-1.84-2a1.63,1.63,0,0,1,1.84-1.84h13.51v-3.74H387q-1.84,0-1.84-2a1.63,1.63,0,0,1,1.84-1.84h11.67v-1.38a2,2,0,0,1,4.09,0v1.38h12.74Zm-18.93,16.63h8.55l1.43-5.12H395.17Z" transform="translate(-258.95 -220.63)"/><path class="cls-2" d="M432.83,259.51q2.25,0,2.25,2v4.09h4.71a1.61,1.61,0,0,1,1.84,1.79q0,2-1.84,2h-7.93q0,3.28-.1,6.34h4.61q4.09,0,4.09,3.74a169.48,169.48,0,0,1-.87,19.49q-0.51,4.66-2,6.4a5.31,5.31,0,0,1-4.35,1.74,8.72,8.72,0,0,1-2.81-.67,2,2,0,0,1-1.48-2q0-2.25,2-2.25a8.72,8.72,0,0,0,2.25.67,1.91,1.91,0,0,0,1.84-1.23,18.14,18.14,0,0,0,.82-4.4q0.46-4.4.46-16.07a1.38,1.38,0,0,0-1.48-1.64H431.6q-0.2,4-.61,7.88a75.92,75.92,0,0,1-4.3,19.09,2.37,2.37,0,0,1-1.84.87,2,2,0,0,1-2.25-2.25,5.25,5.25,0,0,1,.46-1.23A75.3,75.3,0,0,0,427,286.07q0.72-7.78.77-16.58h-2.46q-1.84,0-1.84-2a1.61,1.61,0,0,1,1.84-1.79h5.47v-4.09A1.81,1.81,0,0,1,432.83,259.51Zm15.2-.41q2,0,2,1.79-0.2,1.9-.51,3.48h20.36a1.65,1.65,0,0,1,1.84,1.89q0,2-1.84,2H448.38l-0.1.2a17.84,17.84,0,0,1-4.76,6.55,3.05,3.05,0,0,1-2.1,1q-2.2,0-2.2-2a7.35,7.35,0,0,1,.15-1.18,16.09,16.09,0,0,0,4.81-5.53,18,18,0,0,0,1.74-6.4Q445.93,259.11,448,259.1Zm18.83,12.23a1.81,1.81,0,0,1,2,2q0,1.95-2.25,2.25a76.86,76.86,0,0,1-8.34,1.59,63.58,63.58,0,0,0,2.1,9,62.87,62.87,0,0,0,6.86-4.35,5.16,5.16,0,0,1,1.18-.41q2,0,2,1.84a2.74,2.74,0,0,1-.77,1.84,58.07,58.07,0,0,1-8.08,4.4q1,2.15,2.3,4.45a53.11,53.11,0,0,0,7.42,9.16,1.9,1.9,0,0,1,1,1.84q0,2-2.2,2a4.22,4.22,0,0,1-2.1-.82,42.23,42.23,0,0,1-6.7-8.19,39.32,39.32,0,0,1-4.45-9.36,69,69,0,0,1-2.4-11.05q-1.79.1-3.43,0.1-1.38,0-1.38,1.69v21.18a63.57,63.57,0,0,0,5.94-3.22l0.82-.15q2,0,2,2.25a2,2,0,0,1-.87,1.33,35,35,0,0,1-5.47,3.17,56.68,56.68,0,0,1-8,3.27,3,3,0,0,1-1,.2,1.81,1.81,0,0,1-2-2,2.14,2.14,0,0,1,1.43-2.25q1.64-.46,3.07-1V278.29a4.67,4.67,0,0,1,1-3.33,5,5,0,0,1,3.27-1A70.77,70.77,0,0,0,466.86,271.33Z" transform="translate(-258.95 -220.63)"/><path class="cls-2" d="M478.68,283.46h4.5q3.53,0,3.53,3.22V297q0,2.2,2.61,3.73a17.64,17.64,0,0,0,8.65,1.79h24.36q2,0,2,2.25a1.79,1.79,0,0,1-2,2h-23a34.44,34.44,0,0,1-7.78-.82,17.91,17.91,0,0,1-5.83-2.46l-0.72-.36a0.82,0.82,0,0,0-.56.36,16.32,16.32,0,0,1-4.35,3.07,4.86,4.86,0,0,1-1.79.67,2.07,2.07,0,0,1-.61-4.09,12.94,12.94,0,0,0,3.48-2.15q1.23-1.13,1.23-4v-8.44a0.91,0.91,0,0,0-1.07-1h-2.66A2,2,0,0,1,478.68,283.46Zm0-12.33a3.94,3.94,0,0,1,1.48.41q1.33,0.72,2.51,1.28a21.86,21.86,0,0,1,3.17,2,2.82,2.82,0,0,1,.26,1.18q0,1.84-2,1.84a3.05,3.05,0,0,1-1.64-.41q-1.74-1.07-2.87-1.74l-2.3-1.07a2.4,2.4,0,0,1-.61-1.48A1.81,1.81,0,0,1,478.68,271.13Zm1.69-10.44a3.55,3.55,0,0,1,1.43.46q1.28,0.61,2.4,1.23a30.18,30.18,0,0,1,3.07,2,3.78,3.78,0,0,1,.2,1.28q0,1.79-2,1.79a3.23,3.23,0,0,1-1.64-.41,29,29,0,0,0-2.76-1.69,12.74,12.74,0,0,0-2.15-1.13,2.36,2.36,0,0,1-.56-1.48A1.81,1.81,0,0,1,480.36,260.69Zm17.19-1.18a1.81,1.81,0,0,1,2,2v3.63h4.91a1.63,1.63,0,0,1,1.84,1.84q0,2-1.84,2h-7.83V274h4.09q3.94,0,3.94,3.68A140.73,140.73,0,0,1,504,293.8q-0.46,3.79-1.79,5.22a5.05,5.05,0,0,1-3.89,1.43,10.43,10.43,0,0,1-3.68-1,2,2,0,0,1-1.38-2.1q0-2,1.84-2a11,11,0,0,0,3.22,1.07,1.48,1.48,0,0,0,1.48-1,12.31,12.31,0,0,0,.61-3.48q0.36-3.48.36-12.74a1.18,1.18,0,0,0-1.38-1.28h-2.81a57.93,57.93,0,0,1-1.33,9.41,37.9,37.9,0,0,1-3.48,9.67,2.71,2.71,0,0,1-1.64.56q-2.35-.1-2.46-2.25a2.21,2.21,0,0,1,.67-1.18,38.84,38.84,0,0,0,3.84-11.41,48.42,48.42,0,0,0,.87-9.11v-4.5h-2.92q-1.79,0-1.79-2a1.61,1.61,0,0,1,1.79-1.84h5.37v-3.63A1.81,1.81,0,0,1,497.56,259.51Zm15.35,0a2.35,2.35,0,0,1,1.28.36,1.32,1.32,0,0,1,.56,1,4.89,4.89,0,0,1-.2,1.43q-0.41,1.59-.87,2.87h8.85a1.63,1.63,0,0,1,1.84,1.84q0,2-1.84,2H511.88a14.58,14.58,0,0,1-1.43,2.3,12.72,12.72,0,0,1-2.71,2.87,3.39,3.39,0,0,1-1.18.2,1.79,1.79,0,0,1-1.33-.67,2.18,2.18,0,0,1,.05-2.87,13,13,0,0,0,2.2-2.35,17.39,17.39,0,0,0,1.94-3.48,18.86,18.86,0,0,0,1.43-4.2A1.89,1.89,0,0,1,512.91,259.51Zm-1.64,13.87h8q2.87,0,2.87,2.66a2.69,2.69,0,0,1-.77,1.79L517,282.18a0.6,0.6,0,0,0-.2.41,1.38,1.38,0,0,0,.36.77l0.77,1.07h4.61a1.65,1.65,0,0,1,1.84,1.89q0,2-1.84,2h-2.76a18.23,18.23,0,0,1,.67,4.86q0,4-1.84,5.73a6.13,6.13,0,0,1-4.5,1.48,12.56,12.56,0,0,1-4.86-1,2.09,2.09,0,0,1,.56-4.14,16.9,16.9,0,0,0,4.3,1.07,1.79,1.79,0,0,0,1.64-.72,4,4,0,0,0,.61-2.4,17.86,17.86,0,0,0-.61-4.81l-0.05-.05H508.2q-1.84,0-1.84-2a1.65,1.65,0,0,1,1.84-1.89h5.58l-0.56-.87a3,3,0,0,1-.51-1.59,1.46,1.46,0,0,1,.51-1.13l3.79-3.38c0-.1-0.22-0.15-0.67-0.15h-5.07a1.74,1.74,0,0,1-1.89-2A1.67,1.67,0,0,1,511.27,273.38Z" transform="translate(-258.95 -220.63)"/><path class="cls-2" d="M337.08,330a5.73,5.73,0,0,1-.83,2.75,8.38,8.38,0,0,1-2.44,2.72,9.25,9.25,0,0,1-5.42,1.52q-4.93,0-7.52-3.07a11.59,11.59,0,0,1-2.58-7.77,11,11,0,0,1,2.87-7.95,9.42,9.42,0,0,1,7.23-3,9,9,0,0,1,6.57,2.44,5.67,5.67,0,0,1,2,4,1.86,1.86,0,0,1-.43,1.18,1.72,1.72,0,0,1-1.43.66,1.57,1.57,0,0,1-1.23-.52,10.72,10.72,0,0,1-1.06-1.72,4.7,4.7,0,0,0-4.45-2.61,5,5,0,0,0-4,1.81,8.92,8.92,0,0,0-1.69,5.88q0,4,1.81,5.82a5.16,5.16,0,0,0,3.82,1.46,4.9,4.9,0,0,0,5-3.59q0.69-1.86,2-1.86a2,2,0,0,1,1.32.49A1.73,1.73,0,0,1,337.08,330Z" transform="translate(-258.95 -220.63)"/><path class="cls-2" d="M354,329a8,8,0,0,1-2,5.65,7.41,7.41,0,0,1-5.71,2.32,7.49,7.49,0,0,1-6.17-2.61,8.38,8.38,0,0,1-1.72-5.36,8.1,8.1,0,0,1,1.89-5.51,7.42,7.42,0,0,1,5.91-2.44,7.5,7.5,0,0,1,5.94,2.44A8.16,8.16,0,0,1,354,329Zm-4,0a5.93,5.93,0,0,0-1-3.73,3.63,3.63,0,0,0-5.62,0,5.88,5.88,0,0,0-1,3.7,5.81,5.81,0,0,0,1.06,3.73,3.32,3.32,0,0,0,2.78,1.35,3.43,3.43,0,0,0,2.84-1.35A6.05,6.05,0,0,0,350,329Z" transform="translate(-258.95 -220.63)"/><path class="cls-2" d="M378.13,333.61q0,2.21-.57,2.78a1.77,1.77,0,0,1-1.38.57,1.8,1.8,0,0,1-1.43-.63,4.59,4.59,0,0,1-.52-2.73v-5.71a8.14,8.14,0,0,0-.29-2.64,1.87,1.87,0,0,0-2-1.18,2.56,2.56,0,0,0-2.64,1.69,9.69,9.69,0,0,0-.46,3.5v4.33q0,2.21-.55,2.78a1.85,1.85,0,0,1-1.4.57,1.67,1.67,0,0,1-1.72-1.09,7.55,7.55,0,0,1-.23-2.27v-5.36a12.13,12.13,0,0,0-.23-3,1.85,1.85,0,0,0-1.92-1.18,2.75,2.75,0,0,0-2.81,1.75,9.92,9.92,0,0,0-.4,3.36v4.42q0,2.21-.54,2.73a1.88,1.88,0,0,1-2.78,0q-0.6-.57-0.6-2.75v-9.49a3.82,3.82,0,0,1,.52-2.5,1.91,1.91,0,0,1,1.35-.57,1.64,1.64,0,0,1,1.61.92,3.12,3.12,0,0,1,.29,1.49,5.87,5.87,0,0,1,4.7-2.41,4.67,4.67,0,0,1,4.33,2.41,6,6,0,0,1,4.67-2.41A4.6,4.6,0,0,1,377,322.6a6.94,6.94,0,0,1,1.09,4.27v6.74Z" transform="translate(-258.95 -220.63)"/><path class="cls-2" d="M394.75,327.65a2,2,0,0,1-1.12,2,5.49,5.49,0,0,1-2.09.29h-7.72a4.44,4.44,0,0,0,1.38,3.47,3.74,3.74,0,0,0,2.58.95,5.21,5.21,0,0,0,3.7-1.75,2.82,2.82,0,0,1,1.78-1,1.44,1.44,0,0,1,.92.32,1,1,0,0,1,.37.8,3.56,3.56,0,0,1-1.52,2.61,7.84,7.84,0,0,1-5.16,1.64,8.74,8.74,0,0,1-4.53-1.06q-3.47-2-3.47-6.91a8.23,8.23,0,0,1,1.84-5.54,7.2,7.2,0,0,1,5.82-2.41,6.94,6.94,0,0,1,5.74,2.5A6.57,6.57,0,0,1,394.75,327.65Zm-3.79.09a5.23,5.23,0,0,0-.6-2.35,3.3,3.3,0,0,0-3-1.64,3.19,3.19,0,0,0-3,1.92,5.26,5.26,0,0,0-.57,2.07H391Z" transform="translate(-258.95 -220.63)"/><path class="cls-2" d="M414.58,330.63a5.62,5.62,0,0,1-.95,3.21,5.45,5.45,0,0,1-2.44,2.07,13.05,13.05,0,0,1-5,.72H400.7a12.79,12.79,0,0,1-1.92-.09,2.38,2.38,0,0,1-1-.52,1.78,1.78,0,0,1-.57-1.09,17.62,17.62,0,0,1-.06-1.86V319.16a12.19,12.19,0,0,1,.09-1.89,1.91,1.91,0,0,1,.52-1,2,2,0,0,1,1.09-.54,9.64,9.64,0,0,1,1.89-.11h5.85a9,9,0,0,1,4.56.92,5,5,0,0,1-.63,9Q414.58,326.73,414.58,330.63Zm-5.13-9.21a2.21,2.21,0,0,0-1.58-2.27,11,11,0,0,0-3-.29h-3.53v5.25h4a8.12,8.12,0,0,0,2.52-.29A2.31,2.31,0,0,0,409.44,321.42Zm0.83,8.92q0-2.93-4.45-2.93h-4.5v5.91H406Q410.28,333.33,410.28,330.34Z" transform="translate(-258.95 -220.63)"/><path class="cls-2" d="M430.94,327.65a2,2,0,0,1-1.12,2,5.49,5.49,0,0,1-2.09.29H420a4.43,4.43,0,0,0,1.38,3.47,3.74,3.74,0,0,0,2.58.95,5.21,5.21,0,0,0,3.7-1.75,2.82,2.82,0,0,1,1.78-1,1.44,1.44,0,0,1,.92.32,1,1,0,0,1,.37.8,3.56,3.56,0,0,1-1.52,2.61,7.84,7.84,0,0,1-5.16,1.64,8.74,8.74,0,0,1-4.53-1.06q-3.47-2-3.47-6.91a8.23,8.23,0,0,1,1.84-5.54,7.2,7.2,0,0,1,5.82-2.41,6.94,6.94,0,0,1,5.74,2.5A6.57,6.57,0,0,1,430.94,327.65Zm-3.79.09a5.23,5.23,0,0,0-.6-2.35,3.3,3.3,0,0,0-3-1.64,3.18,3.18,0,0,0-3,1.92,5.24,5.24,0,0,0-.57,2.07h7.14Z" transform="translate(-258.95 -220.63)"/><path class="cls-2" d="M445.7,331.87a4.39,4.39,0,0,1-2,3.93,8.55,8.55,0,0,1-4.82,1.18q-3.59,0-5.34-1.69a3.47,3.47,0,0,1-1.23-2.52,1.49,1.49,0,0,1,.46-1.09,1.52,1.52,0,0,1,1.12-.46,2,2,0,0,1,1.64,1.15,4.06,4.06,0,0,0,3.7,2.09,3,3,0,0,0,1.89-.55,1.55,1.55,0,0,0,.75-1.32,1.77,1.77,0,0,0-1-1.55,12.32,12.32,0,0,0-2.29-.75,14.83,14.83,0,0,1-3.93-1.35,3.73,3.73,0,0,1-2.12-3.33,4,4,0,0,1,1.09-2.75q1.64-1.81,5.13-1.81a8,8,0,0,1,4.76,1.29,3,3,0,0,1,1.46,2.29,1.68,1.68,0,0,1-.4,1.09,1.52,1.52,0,0,1-1.2.46,2.92,2.92,0,0,1-2.12-1.38,3.22,3.22,0,0,0-2.67-1.23,3.61,3.61,0,0,0-1.58.32,1.29,1.29,0,0,0,0,2.47,16.52,16.52,0,0,0,3.41,1.06Q445.7,328.74,445.7,331.87Z" transform="translate(-258.95 -220.63)"/><path class="cls-2" d="M456.87,335q0,1.92-4,1.92-2.84,0-3.7-1.66a7.77,7.77,0,0,1-.57-3.56v-7.52H448q-1.75,0-1.75-1.43t1.84-1.41h0.43V319a6.3,6.3,0,0,1,.29-2.41,1.78,1.78,0,0,1,1.66-.89,1.72,1.72,0,0,1,1.64.89,4.93,4.93,0,0,1,.31,2.09v2.67h0.78a4.24,4.24,0,0,1,1.72.23,1.23,1.23,0,0,1,.66,1.15q0,1.46-2.41,1.46h-0.75v7.2a6.65,6.65,0,0,0,.14,1.81,1.11,1.11,0,0,0,1.18.72,4.85,4.85,0,0,0,1-.11,4.4,4.4,0,0,1,.77-0.11,1.23,1.23,0,0,1,1,.43A1.26,1.26,0,0,1,456.87,335Z" transform="translate(-258.95 -220.63)"/><path class="cls-2" d="M479.84,317.24a1.39,1.39,0,0,1-1.06,1.52,8.85,8.85,0,0,1-1.89.11H473v14.57q0,2.35-.63,2.93a2.12,2.12,0,0,1-1.46.6,1.88,1.88,0,0,1-1.89-1.06,7.84,7.84,0,0,1-.23-2.47V318.87h-3.87a7.44,7.44,0,0,1-2-.17,1.4,1.4,0,0,1-1-1.46,1.45,1.45,0,0,1,.92-1.49,6.77,6.77,0,0,1,2-.17h11.93q2,0,2.41.46A1.74,1.74,0,0,1,479.84,317.24Z" transform="translate(-258.95 -220.63)"/><path class="cls-2" d="M495.63,329a8,8,0,0,1-2,5.65,8.38,8.38,0,0,1-11.88-.29A8.38,8.38,0,0,1,480,329a8.1,8.1,0,0,1,1.89-5.51,7.42,7.42,0,0,1,5.91-2.44,7.5,7.5,0,0,1,5.94,2.44A8.16,8.16,0,0,1,495.63,329Zm-4,0a5.93,5.93,0,0,0-1-3.73,3.63,3.63,0,0,0-5.62,0,5.88,5.88,0,0,0-1,3.7,5.82,5.82,0,0,0,1.06,3.73,3.32,3.32,0,0,0,2.78,1.35,3.43,3.43,0,0,0,2.84-1.35A6,6,0,0,0,491.64,329Z" transform="translate(-258.95 -220.63)"/><path class="cls-2" d="M511.36,333.93a5.56,5.56,0,0,1-.23,2.09,1.75,1.75,0,0,1-1.61.95q-1.87,0-1.81-2.7a6.32,6.32,0,0,1-5.16,2.7,5.7,5.7,0,0,1-2.52-.57,3.72,3.72,0,0,1-1.86-1.66,8,8,0,0,1-.72-3.59v-6.85q0-2.18.55-2.73a1.92,1.92,0,0,1,1.38-.52,2,2,0,0,1,1.4.55q0.57,0.54.57,2.78v5.36a6.38,6.38,0,0,0,.46,2.9,2.36,2.36,0,0,0,2.18,1.23,3,3,0,0,0,2.93-1.66,9.69,9.69,0,0,0,.55-4v-3.9q0-2.15.57-2.73a2,2,0,0,1,1.38-.52,1.93,1.93,0,0,1,1.38.52q0.57,0.55.57,2.73v9.64Z" transform="translate(-258.95 -220.63)"/><path class="cls-2" d="M524.85,323.29a1.64,1.64,0,0,1-.49,1.2,1.48,1.48,0,0,1-1,.43,4.73,4.73,0,0,1-1.15-.26,5.2,5.2,0,0,0-1.38-.23q-1.69,0-2.35,2.07a19.18,19.18,0,0,0-.43,4.82v2.27a6.94,6.94,0,0,1-.26,2.41,1.74,1.74,0,0,1-1.69,1,1.67,1.67,0,0,1-1.69-1,6.46,6.46,0,0,1-.26-2.27v-10q0-2.64,1.92-2.64t1.89,2.44a6.33,6.33,0,0,1,1.18-1.64,3.11,3.11,0,0,1,2.21-.8,5.34,5.34,0,0,1,2.07.46A2,2,0,0,1,524.85,323.29Z" transform="translate(-258.95 -220.63)"/></svg>