<svg width="120" height="91" viewBox="0 0 120 91" fill="none" xmlns="http://www.w3.org/2000/svg">
<g clip-path="url(#clip0_2039_2472)">
<path d="M37.5165 48.6416C36.6423 48.6416 35.8917 48.328 35.2646 47.7009C34.6375 47.0738 34.3239 46.2756 34.3239 45.3064C34.3239 44.2708 34.6375 43.4536 35.2646 42.836C35.8917 42.2279 36.6423 41.9143 37.5165 41.9143C38.3907 41.9143 39.1413 42.2184 39.7684 42.836C40.3955 43.4536 40.7091 44.2708 40.7091 45.3064C40.7091 46.2756 40.3955 47.0738 39.7684 47.7009C39.1413 48.328 38.3907 48.6416 37.5165 48.6416Z" fill="#969696"/>
<path d="M55.8168 48.6416C54.9427 48.6416 54.192 48.328 53.5649 47.7009C52.9378 47.0738 52.6243 46.2756 52.6243 45.3064C52.6243 44.2708 52.9378 43.4536 53.5649 42.836C54.192 42.2279 54.9427 41.9143 55.8168 41.9143C56.691 41.9143 57.4416 42.2184 58.0687 42.836C58.6959 43.4536 59.0094 44.2708 59.0094 45.3064C59.0094 46.2756 58.6959 47.0738 58.0687 47.7009C57.4416 48.328 56.691 48.6416 55.8168 48.6416Z" fill="#969696"/>
<path d="M74.1172 48.6416C73.243 48.6416 72.4924 48.328 71.8653 47.7009C71.2382 47.0738 70.9246 46.2756 70.9246 45.3064C70.9246 44.2708 71.2382 43.4536 71.8653 42.836C72.4924 42.2279 73.243 41.9143 74.1172 41.9143C74.9913 41.9143 75.742 42.2184 76.3691 42.836C76.9962 43.4536 77.3098 44.2708 77.3098 45.3064C77.3098 46.2756 76.9962 47.0738 76.3691 47.7009C75.742 48.328 74.9913 48.6416 74.1172 48.6416Z" fill="#969696"/>
<path d="M86.5645 14.6443H23.2354C19.2257 14.6443 15.9856 17.8939 15.9856 21.8941V64.7849C15.9856 68.7852 19.2352 72.0348 23.2354 72.0348H35.8822V87L53.2894 72.0348H89.6905C93.6908 72.0348 96.9404 68.7852 96.9404 64.7849V30.6642M106.015 19.6897L92.3036 5V13.1145C76.9868 15.6514 70.4827 29.7008 68.8438 33.9898C72.383 32.0762 83.2769 25.9798 92.3036 24.8681V34.3889L106.015 19.6897ZM37.5165 48.6416C36.6423 48.6416 35.8917 48.328 35.2646 47.7009C34.6375 47.0738 34.3239 46.2756 34.3239 45.3064C34.3239 44.2708 34.6375 43.4536 35.2646 42.836C35.8917 42.2279 36.6423 41.9143 37.5165 41.9143C38.3907 41.9143 39.1413 42.2184 39.7684 42.836C40.3955 43.4536 40.7091 44.2708 40.7091 45.3064C40.7091 46.2756 40.3955 47.0738 39.7684 47.7009C39.1413 48.328 38.3907 48.6416 37.5165 48.6416ZM55.8168 48.6416C54.9427 48.6416 54.192 48.328 53.5649 47.7009C52.9378 47.0738 52.6243 46.2756 52.6243 45.3064C52.6243 44.2708 52.9378 43.4536 53.5649 42.836C54.192 42.2279 54.9427 41.9143 55.8168 41.9143C56.691 41.9143 57.4416 42.2184 58.0687 42.836C58.6959 43.4536 59.0094 44.2708 59.0094 45.3064C59.0094 46.2756 58.6959 47.0738 58.0687 47.7009C57.4416 48.328 56.691 48.6416 55.8168 48.6416ZM74.1172 48.6416C73.243 48.6416 72.4924 48.328 71.8653 47.7009C71.2382 47.0738 70.9246 46.2756 70.9246 45.3064C70.9246 44.2708 71.2382 43.4536 71.8653 42.836C72.4924 42.2279 73.243 41.9143 74.1172 41.9143C74.9913 41.9143 75.742 42.2184 76.3691 42.836C76.9962 43.4536 77.3098 44.2708 77.3098 45.3064C77.3098 46.2756 76.9962 47.0738 76.3691 47.7009C75.742 48.328 74.9913 48.6416 74.1172 48.6416Z" stroke="#969696" stroke-width="3.79947" stroke-miterlimit="10"/>
</g>
<defs>
<clipPath id="clip0_2039_2472">
<rect width="120" height="90" fill="white" transform="translate(0 0.646973)"/>
</clipPath>
</defs>
</svg>
