<svg width="60" height="60" viewBox="0 0 60 60" fill="none" xmlns="http://www.w3.org/2000/svg">
<rect x="0.296053" y="0.296053" width="59.4079" height="59.4079" rx="9.17763" stroke="black" stroke-opacity="0.2" stroke-width="0.592105"/>
<path d="M23.9401 12.6808L27.1596 18.1578H27.0394H20.3782C18.3336 18.1578 16.6775 16.5017 16.6775 14.4571C16.6775 12.4125 18.3336 10.7565 20.3782 10.7565H20.5817C21.9602 10.7565 23.2462 11.4873 23.9401 12.6808ZM12.2367 14.4571C12.2367 15.7894 12.5605 17.0476 13.1249 18.1578H9.2762C7.63866 18.1578 6.31567 19.4808 6.31567 21.1183V27.0394C6.31567 28.6769 7.63866 29.9999 9.2762 29.9999H50.7236C52.3611 29.9999 53.6841 28.6769 53.6841 27.0394V21.1183C53.6841 19.4808 52.3611 18.1578 50.7236 18.1578H46.8749C47.4392 17.0476 47.763 15.7894 47.763 14.4571C47.763 9.96082 44.1179 6.31567 39.6216 6.31567H39.4181C36.4668 6.31567 33.7283 7.8792 32.2295 10.4234L29.9999 14.2258L27.7702 10.4327C26.2715 7.8792 23.533 6.31567 20.5817 6.31567H20.3782C15.8819 6.31567 12.2367 9.96082 12.2367 14.4571ZM43.3223 14.4571C43.3223 16.5017 41.6662 18.1578 39.6216 18.1578H32.9604H32.8401L36.0597 12.6808C36.7628 11.4873 38.0396 10.7565 39.4181 10.7565H39.6216C41.6662 10.7565 43.3223 12.4125 43.3223 14.4571ZM9.2762 32.9604V49.2433C9.2762 51.695 11.2653 53.6841 13.717 53.6841H27.0394V32.9604H9.2762ZM32.9604 53.6841H46.2828C48.7345 53.6841 50.7236 51.695 50.7236 49.2433V32.9604H32.9604V53.6841Z" fill="#1977FD"/>
</svg>
